<svg width="25" height="23" viewBox="0 0 25 23" fill="none" xmlns="http://www.w3.org/2000/svg">
<path fill-rule="evenodd" clip-rule="evenodd" d="M7.65652 18.9945C8.09183 18.9945 8.44565 19.3232 8.44565 19.7276C8.44565 20.132 8.09183 20.4598 7.65652 20.4598C7.22121 20.4598 6.86842 20.132 6.86842 19.7276C6.86842 19.3232 7.22121 18.9945 7.65652 18.9945Z" stroke="white" stroke-width="1.5" stroke-linecap="round" stroke-linejoin="round"/>
<path fill-rule="evenodd" clip-rule="evenodd" d="M19.2639 18.9945C19.6992 18.9945 20.053 19.3232 20.053 19.7276C20.053 20.132 19.6992 20.4598 19.2639 20.4598C18.8286 20.4598 18.4747 20.132 18.4747 19.7276C18.4747 19.3232 18.8286 18.9945 19.2639 18.9945Z" stroke="white" stroke-width="1.5" stroke-linecap="round" stroke-linejoin="round"/>
<path d="M2.83674 3.11458L4.98234 3.45958L5.97571 14.4546C6.05617 15.3506 6.86181 16.0387 7.82939 16.0387H19.0856C20.0098 16.0387 20.7938 15.4081 20.9269 14.5571L21.9058 8.27234C22.0265 7.49704 21.3797 6.80321 20.5369 6.80321H5.32687" stroke="#E1CFB9" stroke-width="1.5" stroke-linecap="round" stroke-linejoin="round"/>
<path d="M14.571 10.3453H17.4315" stroke="white" stroke-width="1.5" stroke-linecap="round" stroke-linejoin="round"/>
</svg>
