<svg width="22" height="18" viewBox="0 0 22 18" fill="none" xmlns="http://www.w3.org/2000/svg">
<path fill-rule="evenodd" clip-rule="evenodd" d="M10.77 1.50016C6.64332 1.48842 3.27262 4.23864 3.13789 7.68115L3.13375 7.89483C3.20234 9.58219 3.8877 11.1907 5.09483 12.5159L5.37833 12.8258C6.53054 14.053 7.89981 15.1302 9.43727 16.018L9.80745 16.2267L9.86146 16.2622C10.3884 16.5794 11.0999 16.5794 11.6269 16.2622L11.6719 16.2313C12.8918 15.5686 14.0168 14.7899 15.0244 13.9106C17.0731 12.094 18.3079 10.0586 18.3545 7.99137L18.3546 7.91462C18.3686 4.44907 15.0955 1.61688 10.9985 1.50364L10.77 1.50016ZM10.7654 2.63821C14.1485 2.6479 16.8953 4.91218 16.9973 7.73195L17.0002 7.98058C16.961 9.7137 15.8777 11.4995 14.0451 13.1245C13.1106 13.9398 12.0629 14.6646 10.9265 15.281L10.8508 15.3287C10.7896 15.3732 10.6988 15.3732 10.6376 15.3287L10.564 15.2821C8.87114 14.3563 7.38539 13.1874 6.17469 11.8289C5.19949 10.7583 4.62161 9.47817 4.50529 8.14279L4.4882 7.87502C4.49969 5.03428 7.19446 2.72635 10.5504 2.64065L10.7654 2.63821ZM10.7442 5.5511C9.14293 5.5511 7.84487 6.64179 7.84487 7.98723C7.84487 9.33266 9.14293 10.4234 10.7442 10.4234C12.3454 10.4234 13.6435 9.33266 13.6435 7.98723C13.6435 6.64179 12.3454 5.5511 10.7442 5.5511ZM10.7442 6.68917C11.5974 6.68917 12.289 7.27033 12.289 7.98723C12.289 8.70413 11.5974 9.28529 10.7442 9.28529C9.89097 9.28529 9.19932 8.70413 9.19932 7.98723C9.19932 7.27033 9.89097 6.68917 10.7442 6.68917Z" fill="black"/>
<path d="M3.13789 7.68115L2.63626 7.66152L2.63607 7.67142L3.13789 7.68115ZM10.77 1.50016L10.7777 0.99826L10.7715 0.998242L10.77 1.50016ZM3.13375 7.89483L2.63193 7.8851L2.63163 7.90016L2.63225 7.91521L3.13375 7.89483ZM5.09483 12.5159L4.72377 12.8539L4.72449 12.8546L5.09483 12.5159ZM5.37833 12.8258L5.00796 13.1646L5.01241 13.1693L5.37833 12.8258ZM9.43727 16.018L9.18626 16.4527L9.19073 16.4552L9.43727 16.018ZM9.80745 16.2267L10.0832 15.8074L10.0689 15.7979L10.054 15.7895L9.80745 16.2267ZM9.86146 16.2622L9.58566 16.6816L9.59404 16.6871L9.60264 16.6923L9.86146 16.2622ZM11.6269 16.2622L11.8857 16.6923L11.8988 16.6844L11.9115 16.6757L11.6269 16.2622ZM11.6719 16.2313L11.4323 15.7903L11.409 15.8029L11.3873 15.8179L11.6719 16.2313ZM15.0244 13.9106L15.3544 14.2888L15.3574 14.2862L15.0244 13.9106ZM18.3545 7.99137L18.8564 8.00269L18.8564 7.99217L18.3545 7.99137ZM18.3546 7.91462L17.8527 7.9126L17.8527 7.91382L18.3546 7.91462ZM10.9985 1.50364L11.0124 1.00187L11.0061 1.00178L10.9985 1.50364ZM16.9973 7.73195L17.4993 7.72611L17.4989 7.71381L16.9973 7.73195ZM10.7654 2.63821L10.7669 2.13624L10.7597 2.13632L10.7654 2.63821ZM17.0002 7.98058L17.502 7.99193L17.5022 7.98333L17.5021 7.97474L17.0002 7.98058ZM14.0451 13.1245L14.375 13.5027L14.3781 13.5L14.0451 13.1245ZM10.9265 15.281L10.6872 14.8398L10.6728 14.8476L10.659 14.8563L10.9265 15.281ZM10.8508 15.3287L10.5833 14.904L10.5692 14.9129L10.5557 14.9227L10.8508 15.3287ZM10.6376 15.3287L10.9327 14.9227L10.9195 14.9131L10.9058 14.9044L10.6376 15.3287ZM10.564 15.2821L10.8322 14.8579L10.8188 14.8494L10.8048 14.8418L10.564 15.2821ZM6.17469 11.8289L6.54942 11.495L6.54576 11.4909L6.17469 11.8289ZM4.50529 8.14279L4.00425 8.17477L4.00526 8.18634L4.50529 8.14279ZM4.4882 7.87502L3.98628 7.87299L3.98621 7.89001L3.9873 7.90699L4.4882 7.87502ZM10.5504 2.64065L10.5447 2.13871L10.5375 2.13889L10.5504 2.64065ZM3.63943 7.70078C3.76072 4.60152 6.83205 1.99088 10.7686 2.00208L10.7715 0.998242C6.4546 0.985957 2.78451 3.87576 2.63636 7.66152L3.63943 7.70078ZM3.63558 7.90456L3.63972 7.69088L2.63607 7.67142L2.63193 7.8851L3.63558 7.90456ZM5.46588 12.1779C4.33238 10.9335 3.69871 9.43549 3.63526 7.87444L2.63225 7.91521C2.70597 9.72889 3.44303 11.4478 4.72377 12.8539L5.46588 12.1779ZM5.74866 12.487L5.46516 12.1771L4.72449 12.8546L5.00799 13.1646L5.74866 12.487ZM9.68827 15.5833C8.19109 14.7188 6.86106 13.6717 5.74424 12.4822L5.01241 13.1693C6.20001 14.4342 7.60853 15.5415 9.18627 16.4526L9.68827 15.5833ZM10.054 15.7895L9.68381 15.5808L9.19073 16.4552L9.56091 16.6639L10.054 15.7895ZM10.1373 15.8429L10.0832 15.8074L9.53165 16.6461L9.58566 16.6816L10.1373 15.8429ZM11.3681 15.8322C11.0003 16.0535 10.488 16.0535 10.1203 15.8322L9.60264 16.6923C10.2888 17.1053 11.1995 17.1053 11.8857 16.6923L11.3681 15.8322ZM11.3873 15.8179L11.3423 15.8488L11.9115 16.6757L11.9564 16.6447L11.3873 15.8179ZM14.6945 13.5324C13.7155 14.3866 12.6211 15.1444 11.4323 15.7903L11.9114 16.6723C13.1625 15.9927 14.318 15.1932 15.3544 14.2888L14.6945 13.5324ZM17.8527 7.98006C17.8106 9.85055 16.6879 11.7648 14.6914 13.5351L15.3574 14.2862C17.4584 12.4232 18.8053 10.2666 18.8563 8.00269L17.8527 7.98006ZM17.8527 7.91382L17.8526 7.99058L18.8564 7.99217L18.8566 7.91541L17.8527 7.91382ZM10.9846 2.00537C14.8925 2.11338 17.8653 4.79599 17.8527 7.9126L18.8566 7.91664C18.8719 4.10215 15.2985 1.12038 11.0124 1.00191L10.9846 2.00537ZM10.7624 2.00202L10.9908 2.0055L11.0061 1.00178L10.7777 0.998298L10.7624 2.00202ZM17.4989 7.71381C17.3845 4.55167 14.34 2.14653 10.7669 2.13629L10.764 3.14013C13.957 3.14927 16.4061 5.27269 16.4957 7.7501L17.4989 7.71381ZM17.5021 7.97474L17.4992 7.72611L16.4954 7.7378L16.4983 7.98642L17.5021 7.97474ZM14.3781 13.5C16.2586 11.8325 17.4583 9.92558 17.502 7.99193L16.4984 7.96923C16.4637 9.50182 15.4968 11.1664 13.7121 12.7489L14.3781 13.5ZM11.1658 15.7222C12.3333 15.0889 13.4117 14.3432 14.375 13.5027L13.7151 12.7463C12.8095 13.5364 11.7924 14.2403 10.6872 14.8398L11.1658 15.7222ZM11.1182 15.7534L11.194 15.7057L10.659 14.8563L10.5833 14.904L11.1182 15.7534ZM10.3425 15.7347C10.5796 15.907 10.9087 15.907 11.1459 15.7347L10.5557 14.9227C10.6196 14.8762 10.6875 14.8601 10.7442 14.8601C10.8008 14.8601 10.8687 14.8762 10.9327 14.9227L10.3425 15.7347ZM10.2958 15.7064L10.3694 15.7529L10.9058 14.9044L10.8322 14.8579L10.2958 15.7064ZM5.79998 12.1629C7.05114 13.5668 8.58298 14.7708 10.3231 15.7225L10.8048 14.8418C9.1593 13.9418 7.71964 12.8081 6.5494 11.495L5.79998 12.1629ZM4.00526 8.18634C4.13186 9.63972 4.76019 11.0213 5.80363 12.1669L6.54576 11.4909C5.63879 10.4952 5.11135 9.31662 5.00532 8.09923L4.00526 8.18634ZM3.9873 7.90699L4.00439 8.17476L5.00619 8.11082L4.9891 7.84305L3.9873 7.90699ZM10.5375 2.13889C6.99307 2.22941 3.99918 4.685 3.98628 7.87299L4.99011 7.87705C5.0002 5.38355 7.39585 3.22329 10.5632 3.1424L10.5375 2.13889ZM10.7597 2.13632L10.5447 2.13876L10.556 3.14253L10.7711 3.1401L10.7597 2.13632ZM8.34679 7.98723C8.34679 6.9973 9.33473 6.05302 10.7442 6.05302V5.04918C8.95113 5.04918 7.34295 6.28628 7.34295 7.98723H8.34679ZM10.7442 9.92143C9.33473 9.92143 8.34679 8.97715 8.34679 7.98723H7.34295C7.34295 9.68817 8.95113 10.9253 10.7442 10.9253V9.92143ZM13.1416 7.98723C13.1416 8.97715 12.1536 9.92143 10.7442 9.92143V10.9253C12.5372 10.9253 14.1454 9.68817 14.1454 7.98723H13.1416ZM10.7442 6.05302C12.1536 6.05302 13.1416 6.9973 13.1416 7.98723H14.1454C14.1454 6.28628 12.5372 5.04918 10.7442 5.04918V6.05302ZM12.7909 7.98723C12.7909 6.91482 11.7892 6.18725 10.7442 6.18725V7.19109C11.4056 7.19109 11.7871 7.62584 11.7871 7.98723H12.7909ZM10.7442 9.78721C11.7892 9.78721 12.7909 9.05964 12.7909 7.98723H11.7871C11.7871 8.34862 11.4056 8.78337 10.7442 8.78337V9.78721ZM8.6974 7.98723C8.6974 9.05964 9.69917 9.78721 10.7442 9.78721V8.78337C10.0828 8.78337 9.70124 8.34862 9.70124 7.98723H8.6974ZM10.7442 6.18725C9.69917 6.18725 8.6974 6.91482 8.6974 7.98723H9.70124C9.70124 7.62584 10.0828 7.19109 10.7442 7.19109V6.18725Z" fill="black"/>
</svg>
