<svg width="18" height="18" viewBox="0 0 18 18" fill="none" xmlns="http://www.w3.org/2000/svg">
<path d="M8.02826 0.571964C8.42048 -0.19066 9.51073 -0.190658 9.90296 0.571966L11.984 4.61818C12.131 4.90408 12.4005 5.10724 12.7158 5.16992L17.0818 6.03771C17.8814 6.19663 18.2056 7.16418 17.6632 7.7728L14.5432 11.2741C14.3416 11.5003 14.2471 11.8024 14.2839 12.1032L14.8599 16.8161C14.962 17.6517 14.0916 18.264 13.3397 17.8855L9.43951 15.9224C9.14139 15.7723 8.78982 15.7723 8.4917 15.9224L4.59153 17.8855C3.83958 18.264 2.96922 17.6517 3.07135 16.8161L3.64736 12.1032C3.68413 11.8024 3.58964 11.5003 3.38803 11.2741L0.267967 7.7728C-0.274387 7.16418 0.0498531 6.19663 0.849419 6.03771L5.21538 5.16992C5.53071 5.10724 5.8002 4.90408 5.94724 4.61817L8.02826 0.571964Z" fill="#E6E3E3"/>
</svg>
