<svg width="20" height="20" viewBox="0 0 20 20" fill="none" xmlns="http://www.w3.org/2000/svg">
<path fill-rule="evenodd" clip-rule="evenodd" d="M10.0241 1.64619C6.18322 1.6333 3.04599 4.65147 2.9206 8.42937L2.91675 8.66386C2.98059 10.5156 3.61848 12.2808 4.74198 13.7351L5.00585 14.0752C6.07825 15.422 7.35268 16.6041 8.78364 17.5784L9.12818 17.8075L9.17845 17.8465C9.66891 18.1945 10.3311 18.1945 10.8216 17.8465L10.8634 17.8125C11.9989 17.0852 13.0459 16.2307 13.9838 15.2657C15.8906 13.2722 17.0398 11.0384 17.0832 8.76981L17.0833 8.68558C17.0963 4.8824 14.0499 1.77428 10.2367 1.65001L10.0241 1.64619ZM10.0198 2.89512C13.1686 2.90575 15.7251 5.39063 15.82 8.48512L15.8227 8.75797C15.7862 10.6599 14.778 12.6197 13.0723 14.403C12.2025 15.2978 11.2274 16.0931 10.1697 16.7696L10.0992 16.822C10.0423 16.8708 9.95778 16.8708 9.90082 16.822L9.8323 16.7709C8.25672 15.7549 6.87389 14.4721 5.74705 12.9812C4.8394 11.8063 4.30154 10.4015 4.19328 8.93598L4.17738 8.64213C4.18807 5.52462 6.69618 2.99184 9.81962 2.89779L10.0198 2.89512ZM10 6.09179C8.50969 6.09179 7.30154 7.28874 7.30154 8.76526C7.30154 10.2418 8.50969 11.4387 10 11.4387C11.4903 11.4387 12.6985 10.2418 12.6985 8.76526C12.6985 7.28874 11.4903 6.09179 10 6.09179ZM10 7.34074C10.7941 7.34074 11.4379 7.97852 11.4379 8.76526C11.4379 9.55201 10.7941 10.1898 10 10.1898C9.20592 10.1898 8.56217 9.55201 8.56217 8.76526C8.56217 7.97852 9.20592 7.34074 10 7.34074Z" fill="black"/>
<path d="M2.9206 8.42937L2.42081 8.41278L2.42067 8.42114L2.9206 8.42937ZM10.0241 1.64619L10.0331 1.14622L10.0258 1.14619L10.0241 1.64619ZM2.91675 8.66386L2.41682 8.65564L2.41661 8.66836L2.41704 8.68109L2.91675 8.66386ZM4.74198 13.7351L4.3463 14.0408L4.34694 14.0416L4.74198 13.7351ZM5.00585 14.0752L4.61077 14.3817L4.61471 14.3867L5.00585 14.0752ZM8.78364 17.5784L8.50222 17.9917L8.5068 17.9948L8.78364 17.5784ZM9.12818 17.8075L9.43458 17.4124L9.42019 17.4012L9.40501 17.3911L9.12818 17.8075ZM9.17845 17.8465L8.87205 18.2416L8.88043 18.2481L8.88908 18.2542L9.17845 17.8465ZM10.8216 17.8465L11.111 18.2542L11.1241 18.2449L11.1367 18.2347L10.8216 17.8465ZM10.8634 17.8125L10.5938 17.3915L10.5701 17.4066L10.5483 17.4243L10.8634 17.8125ZM13.9838 15.2657L14.3424 15.6142L14.3451 15.6113L13.9838 15.2657ZM17.0832 8.76981L17.5832 8.77937L17.5832 8.77048L17.0832 8.76981ZM17.0833 8.68558L16.5833 8.68387L16.5833 8.68491L17.0833 8.68558ZM10.2367 1.65001L10.253 1.15022L10.2457 1.15009L10.2367 1.65001ZM15.82 8.48512L16.3201 8.48019L16.3198 8.46979L15.82 8.48512ZM10.0198 2.89512L10.0215 2.39505L10.0131 2.39517L10.0198 2.89512ZM15.8227 8.75797L16.3226 8.76756L16.3227 8.7603L16.3227 8.75304L15.8227 8.75797ZM13.0723 14.403L13.4308 14.7515L13.4336 14.7486L13.0723 14.403ZM10.1697 16.7696L9.90031 16.3484L9.88562 16.3578L9.87163 16.3682L10.1697 16.7696ZM10.0992 16.822L9.80114 16.4205L9.78712 16.4309L9.77387 16.4423L10.0992 16.822ZM9.90082 16.822L10.2262 16.4423L10.2133 16.4312L10.1997 16.4211L9.90082 16.822ZM9.8323 16.7709L10.1311 16.37L10.1175 16.3599L10.1033 16.3507L9.8323 16.7709ZM5.74705 12.9812L6.14595 12.6797L6.14274 12.6756L5.74705 12.9812ZM4.19328 8.93598L3.69392 8.96301L3.69464 8.97282L4.19328 8.93598ZM4.17738 8.64213L3.67738 8.64041L3.67733 8.65479L3.67811 8.66915L4.17738 8.64213ZM9.81962 2.89779L9.81295 2.39777L9.80457 2.39802L9.81962 2.89779ZM3.42033 8.44595C3.53664 4.94163 6.44848 2.13419 10.0224 2.14619L10.0258 1.14619C5.91796 1.13241 2.55535 4.36131 2.42088 8.41278L3.42033 8.44595ZM3.41668 8.67208L3.42054 8.43759L2.42067 8.42114L2.41682 8.65564L3.41668 8.67208ZM5.13766 13.4294C4.07831 12.0582 3.47669 10.3939 3.41645 8.64663L2.41704 8.68109C2.48449 10.6373 3.15864 12.5034 4.3463 14.0408L5.13766 13.4294ZM5.40089 13.7687L5.13703 13.4286L4.34694 14.0416L4.6108 14.3817L5.40089 13.7687ZM9.06505 17.1651C7.67539 16.2189 6.438 15.0711 5.39699 13.7637L4.61471 14.3867C5.7185 15.7729 7.02996 16.9893 8.50224 17.9917L9.06505 17.1651ZM9.40501 17.3911L9.06048 17.162L8.5068 17.9948L8.85134 18.2239L9.40501 17.3911ZM9.48485 17.4514L9.43458 17.4124L8.82177 18.2026L8.87205 18.2416L9.48485 17.4514ZM10.5322 17.4387C10.2151 17.6638 9.78497 17.6638 9.46782 17.4387L8.88908 18.2542C9.55285 18.7253 10.4472 18.7253 11.111 18.2542L10.5322 17.4387ZM10.5483 17.4243L10.5065 17.4583L11.1367 18.2347L11.1785 18.2007L10.5483 17.4243ZM13.6253 14.9172C12.7142 15.8546 11.697 16.6848 10.5938 17.3915L11.1331 18.2335C12.3008 17.4856 13.3777 16.6067 14.3423 15.6142L13.6253 14.9172ZM16.5833 8.76025C16.5431 10.8627 15.4755 12.9828 13.6225 14.9201L14.3451 15.6113C16.3057 13.5616 17.5366 11.2141 17.5831 8.77937L16.5833 8.76025ZM16.5833 8.68491L16.5832 8.76914L17.5832 8.77048L17.5833 8.68625L16.5833 8.68491ZM10.2204 2.14974C13.7685 2.26537 16.5954 5.15624 16.5833 8.68387L17.5833 8.68729C17.5973 4.60856 14.3314 1.28318 10.253 1.15027L10.2204 2.14974ZM10.0151 2.14611L10.2277 2.14993L10.2457 1.15009L10.0331 1.14627L10.0151 2.14611ZM16.3198 8.46979C16.2165 5.10267 13.4365 2.40665 10.0215 2.39512L10.0181 3.39512C12.9006 3.40485 15.2337 5.6786 15.3202 8.50046L16.3198 8.46979ZM16.3227 8.75304L16.32 8.48019L15.32 8.49006L15.3227 8.76291L16.3227 8.75304ZM13.4336 14.7486C15.1895 12.9128 16.2829 10.8393 16.3226 8.76756L15.3228 8.74838C15.2896 10.4806 14.3664 12.3266 12.7109 14.0574L13.4336 14.7486ZM10.4391 17.1908C11.529 16.4937 12.5341 15.674 13.4308 14.7515L12.7137 14.0545C11.8709 14.9216 10.9257 15.6926 9.90031 16.3484L10.4391 17.1908ZM10.3973 17.2234L10.4678 17.171L9.87163 16.3682L9.80114 16.4205L10.3973 17.2234ZM9.57546 17.2016C9.81965 17.4109 10.1804 17.4109 10.4246 17.2016L9.77387 16.4423C9.90414 16.3307 10.0959 16.3307 10.2262 16.4423L9.57546 17.2016ZM9.53347 17.1718L9.60198 17.2228L10.1997 16.4211L10.1311 16.37L9.53347 17.1718ZM5.34817 13.2827C6.51047 14.8205 7.93665 16.1434 9.56133 17.1911L10.1033 16.3507C8.5768 15.3663 7.23731 14.1237 6.14593 12.6797L5.34817 13.2827ZM3.69464 8.97282C3.81016 10.5366 4.38408 12.0348 5.35137 13.2869L6.14274 12.6756C5.29472 11.5778 4.79293 10.2664 4.69192 8.89915L3.69464 8.97282ZM3.67811 8.66915L3.69401 8.96301L4.69255 8.90896L4.67665 8.6151L3.67811 8.66915ZM9.80457 2.39802C6.41686 2.50003 3.68902 5.2481 3.67738 8.64041L4.67737 8.64384C4.68713 5.80115 6.9755 3.48366 9.83467 3.39757L9.80457 2.39802ZM10.0131 2.39517L9.81295 2.39784L9.8263 3.39775L10.0265 3.39508L10.0131 2.39517ZM7.80154 8.76526C7.80154 7.56926 8.78143 6.59179 10 6.59179V5.59179C8.23795 5.59179 6.80154 7.00822 6.80154 8.76526H7.80154ZM10 10.9387C8.78143 10.9387 7.80154 9.96126 7.80154 8.76526H6.80154C6.80154 10.5223 8.23795 11.9387 10 11.9387V10.9387ZM12.1985 8.76526C12.1985 9.96126 11.2186 10.9387 10 10.9387V11.9387C11.7621 11.9387 13.1985 10.5223 13.1985 8.76526H12.1985ZM10 6.59179C11.2186 6.59179 12.1985 7.56926 12.1985 8.76526H13.1985C13.1985 7.00822 11.7621 5.59179 10 5.59179V6.59179ZM11.9379 8.76526C11.9379 7.698 11.0659 6.84074 10 6.84074V7.84074C10.5224 7.84074 10.9379 8.25904 10.9379 8.76526H11.9379ZM10 10.6898C11.0659 10.6898 11.9379 9.83253 11.9379 8.76526H10.9379C10.9379 9.27149 10.5224 9.68979 10 9.68979V10.6898ZM8.06217 8.76526C8.06217 9.83253 8.93417 10.6898 10 10.6898V9.68979C9.47766 9.68979 9.06217 9.27149 9.06217 8.76526H8.06217ZM10 6.84074C8.93417 6.84074 8.06217 7.698 8.06217 8.76526H9.06217C9.06217 8.25904 9.47766 7.84074 10 7.84074V6.84074Z" fill="black"/>
</svg>
