<svg width="23" height="23" viewBox="0 0 23 23" fill="none" xmlns="http://www.w3.org/2000/svg">
<path fill-rule="evenodd" clip-rule="evenodd" d="M21.08 8.02616H17.0218C15.1332 8.02948 13.6033 9.52118 13.5999 11.3625C13.5973 13.2081 15.129 14.7064 17.0218 14.7089H21.0834V15.0021C21.0834 18.2213 19.1318 20.125 15.8292 20.125H7.17182C3.86834 20.125 1.91675 18.2213 1.91675 15.0021V7.99045C1.91675 4.77118 3.86834 2.875 7.17182 2.875H15.8258C19.1284 2.875 21.08 4.77118 21.08 7.99045V8.02616ZM6.45876 8.01878H11.8638H11.8672H11.874C12.2786 8.01712 12.6057 7.69569 12.604 7.30034C12.6023 6.90582 12.2718 6.58689 11.8672 6.58855H6.45876C6.05669 6.59021 5.73043 6.90832 5.72873 7.30117C5.72702 7.69569 6.05413 8.01712 6.45876 8.01878Z" fill="black"/>
<path opacity="0.4" d="M15.3693 11.7842C15.5698 12.6958 16.369 13.3371 17.2814 13.3204H20.3959C20.7755 13.3204 21.0835 13.006 21.0835 12.6174V10.1913C21.0827 9.80349 20.7755 9.48824 20.3959 9.48741H17.2081C16.1702 9.49074 15.3319 10.3523 15.3335 11.4139C15.3335 11.5382 15.3457 11.6625 15.3693 11.7842Z" fill="black"/>
<path d="M17.2503 12.3624C17.7796 12.3624 18.2087 11.9333 18.2087 11.4041C18.2087 10.8748 17.7796 10.4457 17.2503 10.4457C16.7211 10.4457 16.292 10.8748 16.292 11.4041C16.292 11.9333 16.7211 12.3624 17.2503 12.3624Z" fill="black"/>
</svg>
