<svg width="19" height="19" viewBox="0 0 19 19" fill="none" xmlns="http://www.w3.org/2000/svg">
<path d="M16.6497 4.9591C16.401 4.38324 16.0424 3.86139 15.594 3.42278C15.1452 2.98286 14.6161 2.63326 14.0354 2.393C13.4332 2.14287 12.7874 2.01483 12.1354 2.01634C11.2206 2.01634 10.3282 2.26682 9.55258 2.73997C9.36703 2.85315 9.19076 2.97747 9.02377 3.11292C8.85678 2.97747 8.68051 2.85315 8.49496 2.73997C7.71938 2.26682 6.8269 2.01634 5.91216 2.01634C5.25346 2.01634 4.61519 2.14251 4.01216 2.393C3.42954 2.63421 2.90445 2.98118 2.45357 3.42278C2.00454 3.86089 1.64584 4.38286 1.39781 4.9591C1.1399 5.55842 1.00816 6.19484 1.00816 6.84982C1.00816 7.46769 1.13433 8.11154 1.38482 8.76652C1.59449 9.31388 1.89507 9.88165 2.27915 10.455C2.88775 11.3623 3.72456 12.3086 4.76362 13.2679C6.48549 14.858 8.19067 15.9564 8.26303 16.001L8.70277 16.283C8.8976 16.4073 9.14809 16.4073 9.34291 16.283L9.78266 16.001C9.85502 15.9546 11.5583 14.858 13.2821 13.2679C14.3211 12.3086 15.1579 11.3623 15.7665 10.455C16.1506 9.88165 16.4531 9.31388 16.6609 8.76652C16.9114 8.11154 17.0375 7.46769 17.0375 6.84982C17.0394 6.19484 16.9076 5.55842 16.6497 4.9591Z" fill="white"/>
</svg>
