<svg width="22" height="26" viewBox="0 0 22 26" fill="none" xmlns="http://www.w3.org/2000/svg">
<path fill-rule="evenodd" clip-rule="evenodd" d="M10.8948 2.1668C6.72027 2.14984 3.31051 6.12236 3.17423 11.0948L3.17004 11.4035C3.23942 13.8408 3.93272 16.1641 5.15383 18.0782L5.44062 18.5259C6.60618 20.2985 7.99132 21.8544 9.54659 23.1368L9.92106 23.4383L9.9757 23.4896C10.5088 23.9478 11.2285 23.9478 11.7616 23.4896L11.8071 23.4449C13.0411 22.4877 14.1791 21.3629 15.1985 20.0929C17.2709 17.469 18.52 14.5289 18.5672 11.5429L18.5673 11.4321C18.5814 6.4263 15.2704 2.33539 11.1259 2.17183L10.8948 2.1668ZM10.8901 3.81066C14.3124 3.82466 17.091 7.09525 17.1942 11.1682L17.1971 11.5274C17.1575 14.0307 16.0616 16.6101 14.2078 18.9574C13.2625 20.1351 12.2026 21.1819 11.0531 22.0723L10.9765 22.1412C10.9146 22.2054 10.8227 22.2054 10.7608 22.1412L10.6864 22.074C8.9739 20.7367 7.47094 19.0483 6.24621 17.086C5.25971 15.5395 4.67513 13.6905 4.55747 11.7617L4.54018 11.3749C4.5518 7.27162 7.2778 3.93797 10.6726 3.81418L10.8901 3.81066ZM10.8686 8.01811C9.24884 8.01811 7.93574 9.59354 7.93574 11.5369C7.93574 13.4803 9.24884 15.0558 10.8686 15.0558C12.4884 15.0558 13.8015 13.4803 13.8015 11.5369C13.8015 9.59354 12.4884 8.01811 10.8686 8.01811ZM10.8686 9.66198C11.7317 9.66198 12.4314 10.5014 12.4314 11.5369C12.4314 12.5724 11.7317 13.4119 10.8686 13.4119C10.0056 13.4119 9.30588 12.5724 9.30588 11.5369C9.30588 10.5014 10.0056 9.66198 10.8686 9.66198Z" fill="black"/>
<path d="M3.17423 11.0948L2.6629 11.0808L2.66281 11.0879L3.17423 11.0948ZM10.8948 2.1668L10.9059 1.65538L10.8969 1.65534L10.8948 2.1668ZM3.17004 11.4035L2.65861 11.3965L2.65847 11.4073L2.65877 11.418L3.17004 11.4035ZM5.15383 18.0782L4.72263 18.3533L4.72317 18.3542L5.15383 18.0782ZM5.44062 18.5259L5.00993 18.8018L5.01326 18.8069L5.44062 18.5259ZM9.54659 23.1368L9.22119 23.5315L9.22583 23.5352L9.54659 23.1368ZM9.92106 23.4383L10.2712 23.0655L10.257 23.0522L10.2418 23.0399L9.92106 23.4383ZM9.9757 23.4896L9.62557 23.8625L9.63379 23.8702L9.64234 23.8775L9.9757 23.4896ZM11.7616 23.4896L12.0949 23.8775L12.1079 23.8664L12.1201 23.8544L11.7616 23.4896ZM11.8071 23.4449L11.4936 23.0408L11.4699 23.0592L11.4485 23.0802L11.8071 23.4449ZM15.1985 20.0929L15.5974 20.413L15.5999 20.4099L15.1985 20.0929ZM18.5672 11.5429L19.0786 11.551L19.0786 11.5435L18.5672 11.5429ZM18.5673 11.4321L18.0558 11.4306L18.0558 11.4315L18.5673 11.4321ZM11.1259 2.17183L11.1461 1.66068L11.137 1.66048L11.1259 2.17183ZM17.1942 11.1682L17.7057 11.1641L17.7055 11.1553L17.1942 11.1682ZM10.8901 3.81066L10.8922 3.29909L10.8819 3.29926L10.8901 3.81066ZM17.1971 11.5274L17.7087 11.5355L17.7086 11.5232L17.1971 11.5274ZM14.2078 18.9574L14.6066 19.2775L14.6091 19.2744L14.2078 18.9574ZM11.0531 22.0723L10.7399 21.6679L10.725 21.6794L10.7111 21.692L11.0531 22.0723ZM10.9765 22.1412L10.6345 21.7609L10.6209 21.7731L10.6082 21.7863L10.9765 22.1412ZM10.7608 22.1412L11.1291 21.7863L11.1168 21.7735L11.1035 21.7615L10.7608 22.1412ZM10.6864 22.074L11.0291 21.6943L11.0155 21.6821L11.0012 21.6708L10.6864 22.074ZM6.24621 17.086L6.68012 16.8152L6.67742 16.8109L6.24621 17.086ZM4.55747 11.7617L4.04644 11.7845L4.04695 11.7928L4.55747 11.7617ZM4.54018 11.3749L4.02871 11.3734L4.02868 11.3856L4.02922 11.3977L4.54018 11.3749ZM10.6726 3.81418L10.6643 3.30267L10.6539 3.30305L10.6726 3.81418ZM3.6855 11.1088C3.81661 6.32525 7.07712 2.66276 10.8927 2.67827L10.8969 1.65534C6.36343 1.63692 2.80441 5.91946 2.66295 11.0808L3.6855 11.1088ZM3.68146 11.4104L3.68565 11.1018L2.66281 11.0879L2.65861 11.3965L3.68146 11.4104ZM5.58503 17.8032C4.41704 15.9723 3.74824 13.7402 3.6813 11.3889L2.65877 11.418C2.73061 13.9413 3.4484 16.3559 4.72263 18.3533L5.58503 17.8032ZM5.87128 18.25L5.5845 17.8023L4.72317 18.3542L5.00996 18.8018L5.87128 18.25ZM9.87198 22.7422C8.35827 21.4941 7.00695 19.977 5.86798 18.2449L5.01326 18.8069C6.20542 20.6199 7.62437 22.2148 9.22121 23.5314L9.87198 22.7422ZM10.2418 23.0399L9.86736 22.7384L9.22583 23.5352L9.60029 23.8367L10.2418 23.0399ZM10.3258 23.1168L10.2712 23.0655L9.57093 23.8112L9.62557 23.8625L10.3258 23.1168ZM11.4282 23.1017C11.0869 23.3951 10.6504 23.3951 10.3091 23.1017L9.64234 23.8775C10.3671 24.5004 11.3702 24.5004 12.0949 23.8775L11.4282 23.1017ZM11.4485 23.0802L11.4031 23.1249L12.1201 23.8544L12.1656 23.8097L11.4485 23.0802ZM14.7996 19.7727C13.8043 21.0128 12.6947 22.1091 11.4936 23.0408L12.1205 23.8491C13.3876 22.8662 14.554 21.7129 15.5974 20.413L14.7996 19.7727ZM18.0558 11.5348C18.0108 14.3814 16.8189 17.2161 14.7971 19.7758L15.5999 20.4099C17.723 17.7218 19.0292 14.6763 19.0786 11.551L18.0558 11.5348ZM18.0558 11.4315L18.0557 11.5424L19.0786 11.5435L19.0788 11.4326L18.0558 11.4315ZM11.1057 2.6829C14.8973 2.83254 18.0694 6.61478 18.0558 11.4306L19.0788 11.4335C19.0934 6.23783 15.6434 1.83825 11.1461 1.66076L11.1057 2.6829ZM10.8837 2.67815L11.1148 2.68318L11.137 1.66048L10.9059 1.65546L10.8837 2.67815ZM17.7055 11.1553C17.5976 6.89397 14.6716 3.31465 10.8922 3.2992L10.888 4.32213C13.9532 4.33466 16.5845 7.29654 16.6829 11.1812L17.7055 11.1553ZM17.7086 11.5232L17.7057 11.1641L16.6828 11.1724L16.6857 11.5315L17.7086 11.5232ZM14.6091 19.2744C16.511 16.8664 17.6666 14.1815 17.7086 11.5355L16.6857 11.5193C16.6484 13.8799 15.6123 16.3539 13.8064 18.6404L14.6091 19.2744ZM11.3663 22.4766C12.5488 21.5607 13.6372 20.4853 14.6066 19.2775L13.8089 18.6372C12.8877 19.7849 11.8564 20.8031 10.7399 21.6679L11.3663 22.4766ZM11.3185 22.5215L11.3951 22.4526L10.7111 21.692L10.6345 21.7609L11.3185 22.5215ZM10.3925 22.4961C10.6556 22.7691 11.0817 22.7691 11.3448 22.4961L10.6082 21.7863C10.6674 21.7248 10.7594 21.6779 10.8686 21.6779C10.9779 21.6779 11.0699 21.7248 11.1291 21.7863L10.3925 22.4961ZM10.3436 22.4536L10.4181 22.5208L11.1035 21.7615L11.0291 21.6943L10.3436 22.4536ZM5.81232 17.3568C7.06665 19.3665 8.60901 21.1007 10.3716 22.4771L11.0012 21.6708C9.3388 20.3727 7.87523 18.73 6.6801 16.8152L5.81232 17.3568ZM4.04695 11.7928C4.16958 13.803 4.77898 15.737 5.81501 17.3611L6.67742 16.8109C5.74043 15.3421 5.18069 13.578 5.06799 11.7305L4.04695 11.7928ZM4.02922 11.3977L4.04651 11.7845L5.06842 11.7388L5.05114 11.352L4.02922 11.3977ZM10.6539 3.30305C6.90719 3.43967 4.04087 7.0803 4.02871 11.3734L5.05164 11.3763C5.06273 7.46293 7.6484 4.43626 10.6912 4.32531L10.6539 3.30305ZM10.8819 3.29926L10.6643 3.30278L10.6808 4.32558L10.8984 4.32206L10.8819 3.29926ZM8.44721 11.5369C8.44721 9.78483 9.6146 8.52958 10.8686 8.52958V7.50664C8.88309 7.50664 7.42427 9.40224 7.42427 11.5369H8.44721ZM10.8686 14.5443C9.6146 14.5443 8.44721 13.289 8.44721 11.5369H7.42427C7.42427 13.6716 8.88309 15.5672 10.8686 15.5672V14.5443ZM13.2901 11.5369C13.2901 13.289 12.1227 14.5443 10.8686 14.5443V15.5672C12.8542 15.5672 14.313 13.6716 14.313 11.5369H13.2901ZM10.8686 8.52958C12.1227 8.52958 13.2901 9.78483 13.2901 11.5369H14.313C14.313 9.40224 12.8542 7.50664 10.8686 7.50664V8.52958ZM12.9429 11.5369C12.9429 10.3101 12.0975 9.15051 10.8686 9.15051V10.1734C11.366 10.1734 11.9199 10.6927 11.9199 11.5369H12.9429ZM10.8686 13.9234C12.0975 13.9234 12.9429 12.7637 12.9429 11.5369H11.9199C11.9199 12.3812 11.366 12.9004 10.8686 12.9004V13.9234ZM8.79441 11.5369C8.79441 12.7637 9.6398 13.9234 10.8686 13.9234V12.9004C10.3713 12.9004 9.81735 12.3812 9.81735 11.5369H8.79441ZM10.8686 9.15051C9.6398 9.15051 8.79441 10.3101 8.79441 11.5369H9.81735C9.81735 10.6927 10.3713 10.1734 10.8686 10.1734V9.15051Z" fill="black"/>
</svg>
