<svg width="258" height="258" viewBox="0 0 258 258" fill="none" xmlns="http://www.w3.org/2000/svg">
<path d="M258 197.318H0V197.473H258V197.318Z" fill="#EBEBEB"/>
<path d="M162.901 200.827H149.743V200.982H162.901V200.827Z" fill="#EBEBEB"/>
<path d="M234.986 203.614H203.872V203.768H234.986V203.614Z" fill="#EBEBEB"/>
<path d="M146.957 200.879H114.81V201.033H146.957V200.879Z" fill="#EBEBEB"/>
<path d="M93.912 204.749H87.204V204.904H93.912V204.749Z" fill="#EBEBEB"/>
<path d="M131.116 204.749H100.465V204.904H131.116V204.749Z" fill="#EBEBEB"/>
<path d="M46.956 202.582H27.09V202.736H46.956V202.582Z" fill="#EBEBEB"/>
<path d="M122.292 174.305H22.6524C21.0528 174.305 19.7112 172.963 19.7112 171.363V31.3211C19.7112 29.7215 21.0528 28.3799 22.6524 28.3799H122.292C123.892 28.3799 125.233 29.7215 125.233 31.3211V171.363C125.233 172.963 123.943 174.305 122.292 174.305ZM22.6524 28.4831C21.1044 28.4831 19.8144 29.7215 19.8144 31.3211V171.363C19.8144 172.911 21.0528 174.201 22.6524 174.201H122.292C123.84 174.201 125.13 172.963 125.13 171.363V31.3211C125.13 29.7731 123.892 28.4831 122.292 28.4831H22.6524Z" fill="#EBEBEB"/>
<path d="M233.903 174.305H134.263C132.664 174.305 131.322 172.963 131.322 171.363V31.3211C131.322 29.7215 132.664 28.3799 134.263 28.3799H233.903C235.502 28.3799 236.844 29.7215 236.844 31.3211V171.363C236.844 172.963 235.554 174.305 233.903 174.305ZM134.263 28.4831C132.715 28.4831 131.425 29.7215 131.425 31.3211V171.363C131.425 172.911 132.664 174.201 134.263 174.201H233.903C235.451 174.201 236.741 172.963 236.741 171.363V31.3211C236.741 29.7731 235.502 28.4831 233.903 28.4831H134.263Z" fill="#EBEBEB"/>
<path d="M101.136 152.581H66.8736L64.758 128.587H99.0204L101.136 152.581Z" fill="black"/>
<path d="M102.89 152.581H68.628L66.564 128.587H100.826L102.89 152.581Z" fill="#F0F0F0"/>
<path d="M73.3236 147.421L72.1884 133.747H96.1308L97.266 147.421H73.3236Z" fill="white"/>
<path d="M108.824 152.581H104.8V197.318H108.824V152.581Z" fill="black"/>
<path d="M110.063 152.581H107.276V197.318H110.063V152.581Z" fill="#F0F0F0"/>
<path d="M71.2015 157.486H110.108V152.533H71.2015V157.486Z" fill="#F0F0F0"/>
<path d="M72.5495 157.483H68.5247V197.318H72.5495V157.483Z" fill="black"/>
<path d="M73.8395 157.483H71.0531V197.318H73.8395V157.483Z" fill="#F0F0F0"/>
<path d="M43.9632 157.483H39.9384V197.318H43.9632V157.483Z" fill="black"/>
<path d="M45.2015 157.483H42.4151V197.318H45.2015V157.483Z" fill="#F0F0F0"/>
<path d="M83.3856 157.483H79.3608V197.318H83.3856V157.483Z" fill="black"/>
<path d="M84.624 157.483H81.8376V197.318H84.624V157.483Z" fill="#F0F0F0"/>
<path d="M71.208 152.581H39.9384V157.535H71.208V152.581Z" fill="black"/>
<path d="M187.721 40.9702H66.822V108.308H187.721V40.9702Z" fill="#E0E0E0"/>
<path d="M194.377 40.9702H67.4412V108.308H194.377V40.9702Z" fill="#F5F5F5"/>
<path d="M192.282 106.215V43.0562L69.4743 43.0562L69.4743 106.215L192.282 106.215Z" fill="white"/>
<path d="M119.248 106.193L142.416 43.0342H104.129L80.9603 106.193H119.248Z" fill="#F5F5F5"/>
<path d="M156.038 106.193L179.258 43.0342H150.362L127.194 106.193H156.038Z" fill="#F5F5F5"/>
<path d="M226.06 133.025H215.791V197.318H226.06V133.025Z" fill="black"/>
<path d="M223.376 197.318H226.06V192.365H220.538L223.376 197.318Z" fill="#FAFAFA"/>
<path d="M131.27 133.025H121.002V197.318H131.27V133.025Z" fill="black"/>
<path d="M226.06 133.025H128.948V195.977H226.06V133.025Z" fill="#FAFAFA"/>
<path d="M224.202 153.355H130.754V135.553H224.202V153.355ZM131.27 152.839H223.686V136.069H131.27V152.839Z" fill="black"/>
<path d="M207.793 144.17H149.021C146.286 144.17 143.654 141.951 141.797 138.133L141.642 137.772H215.172L215.017 138.133C213.108 142.003 210.528 144.17 207.793 144.17ZM142.468 138.288C144.222 141.693 146.596 143.654 149.021 143.654H207.742C210.167 143.654 212.54 141.693 214.295 138.288H142.468Z" fill="black"/>
<path d="M131.632 197.318H128.948V192.365H134.47L131.632 197.318Z" fill="#FAFAFA"/>
<path d="M224.202 173.376H130.754V155.574H224.202V173.376ZM131.27 172.86H223.686V156.09H131.27V172.86Z" fill="black"/>
<path d="M207.793 164.243H149.021C146.286 164.243 143.654 162.024 141.797 158.205L141.642 157.844H215.172L215.017 158.205C213.108 162.024 210.528 164.243 207.793 164.243ZM142.468 158.36C144.222 161.766 146.596 163.727 149.021 163.727H207.742C210.167 163.727 212.54 161.766 214.295 158.36H142.468Z" fill="black"/>
<path d="M224.202 193.448H130.754V175.646H224.202V193.448ZM131.27 192.932H223.686V176.162H131.27V192.932Z" fill="black"/>
<path d="M207.793 184.315H149.021C146.286 184.315 143.654 182.096 141.797 178.278L141.642 177.917H215.172L215.017 178.278C213.108 182.096 210.528 184.315 207.793 184.315ZM142.468 178.433C144.222 181.838 146.596 183.799 149.021 183.799H207.742C210.167 183.799 212.54 181.838 214.295 178.433H142.468Z" fill="black"/>
<path d="M62.436 141.539V142.777H61.6104L60.9912 152.581H51.2388L50.568 142.777H49.794V141.539H62.436Z" fill="black"/>
<path d="M59.2368 117.235C58.4628 111.404 50.568 109.753 40.6092 109.547C31.1148 109.34 28.0704 105.986 28.0704 105.986C28.0704 105.986 28.122 119.609 41.796 124.511C54.7476 129.206 60.0108 123.066 59.2368 117.235Z" fill="black"/>
<path d="M54.3864 130.445C54.5412 128.071 58.3596 123.634 67.596 125.646C74.2524 127.091 76.7292 123.634 76.7292 123.634C76.7292 123.634 76.11 133.386 66.0996 136.327C56.5536 139.114 54.0768 134.676 54.3864 130.445Z" fill="black"/>
<path d="M56.5019 145.202C56.6051 145.202 56.7083 145.151 56.7599 145.099C57.4307 144.325 56.8631 142.416 56.1407 139.784C55.1603 136.43 53.9735 132.251 55.0055 129.206C55.5731 127.503 56.2955 126.007 56.9663 124.511C58.4111 121.466 59.6495 118.835 58.6175 116.048C58.5659 115.842 58.3595 115.79 58.1531 115.842C57.9467 115.893 57.8951 116.1 57.9467 116.306C58.8755 118.783 57.7403 121.157 56.2955 124.201C55.6247 125.594 54.8507 127.194 54.2831 128.948C53.1995 132.199 54.4379 136.482 55.4183 139.939C55.9859 141.951 56.6051 144.067 56.1923 144.583C56.0891 144.738 56.0891 144.944 56.2439 145.099C56.2955 145.202 56.3987 145.202 56.5019 145.202Z" fill="black"/>
<path d="M129 220.59C184.257 220.59 229.052 217.98 229.052 214.759C229.052 211.539 184.257 208.928 129 208.928C73.7426 208.928 28.9476 211.539 28.9476 214.759C28.9476 217.98 73.7426 220.59 129 220.59Z" fill="#F5F5F5"/>
<path d="M129 186.276H55.728L51.7032 68.4731H124.975L129 186.276Z" fill="#E1CFB9"/>
<path d="M132.612 182.664H59.3401L55.3669 64.8096H128.639L132.612 182.664Z" fill="#E1CFB9"/>
<path opacity="0.3" d="M132.612 182.664H59.3401L55.3669 64.8096H128.639L132.612 182.664Z" fill="white"/>
<path d="M108.084 113.297C115.936 105.31 115.613 92.2598 107.362 84.148C99.1115 76.0362 86.0576 75.9345 78.2055 83.921C70.3534 91.9075 70.6765 104.958 78.9272 113.07C87.1779 121.181 100.232 121.283 108.084 113.297Z" fill="#E1CFB9"/>
<path d="M110.166 98.6076C110.269 101.549 109.598 104.284 108.412 106.709C105.728 112.024 100.207 115.636 93.7573 115.636C87.3073 115.636 81.5281 112.024 78.4837 106.709C77.0905 104.284 76.2649 101.549 76.1617 98.6076C75.8521 89.2164 83.1793 81.5796 92.5705 81.5796C101.962 81.5796 109.805 89.2164 110.166 98.6076Z" fill="white"/>
<path opacity="0.6" d="M108.36 106.709C105.677 112.024 100.156 115.636 93.7057 115.636C87.2557 115.636 81.4765 112.024 78.4321 106.709C82.6117 103.871 87.7201 102.168 93.2413 102.168C98.8141 102.168 103.974 103.819 108.36 106.709Z" fill="#E1CFB9"/>
<path opacity="0.6" d="M98.4167 98.1757C101.294 95.2493 101.172 90.4637 98.1436 87.4867C95.1156 84.5097 90.3286 84.4686 87.4515 87.395C84.5744 90.3213 84.6967 95.1069 87.7247 98.0839C90.7526 101.061 95.5396 101.102 98.4167 98.1757Z" fill="#E1CFB9"/>
<path d="M117.906 139.991H71.1565L70.8469 130.703H117.596L117.906 139.991Z" fill="white"/>
<path d="M118.474 156.554H71.7241L71.4145 147.266H118.164L118.474 156.554Z" fill="white"/>
<path d="M100.465 148.556L89.2164 150.104C88.752 150.156 88.4424 150.569 88.5456 151.033L90.042 158.567C90.1452 159.031 90.558 159.341 91.0224 159.289L102.271 157.741C102.736 157.69 103.045 157.277 102.942 156.812L101.446 149.279C101.342 148.814 100.93 148.505 100.465 148.556ZM97.2144 156.193L95.1504 156.451L94.944 154.026C94.5312 153.82 94.17 153.458 94.1184 152.994C93.9636 152.272 94.4796 151.549 95.2536 151.446C96.0276 151.343 96.75 151.859 96.9048 152.581C97.008 153.046 96.8532 153.458 96.492 153.768L97.2144 156.193Z" fill="#E1CFB9"/>
<path d="M99.33 148.143C98.9172 148.195 98.5044 147.937 98.4528 147.524L98.298 146.802C97.8852 144.789 95.976 143.241 93.8604 143.396C91.59 143.603 90.0936 145.563 90.5064 147.731L90.6612 148.556C90.7644 148.969 90.4548 149.33 90.042 149.382C89.6292 149.433 89.2164 149.175 89.1648 148.763L89.01 148.04C88.4424 145.202 90.2484 142.467 93.138 142.003C96.1824 141.487 99.1752 143.499 99.7428 146.492L99.8976 147.318C100.001 147.731 99.7428 148.092 99.33 148.143Z" fill="#E1CFB9"/>
<path d="M110.785 169.557H80.3413L80.1349 163.52H110.579L110.785 169.557Z" fill="#E1CFB9"/>
<path d="M96.0792 135.347C96.1308 136.276 95.3568 137.05 94.428 137.05C93.4992 137.05 92.7252 136.276 92.6736 135.347C92.622 134.418 93.396 133.644 94.3248 133.644C95.2536 133.644 96.0792 134.366 96.0792 135.347Z" fill="#263238"/>
<path d="M88.752 135.347C88.8036 136.276 88.0296 137.05 87.1008 137.05C86.172 137.05 85.398 136.276 85.3464 135.347C85.2948 134.418 86.0688 133.644 86.9976 133.644C87.9264 133.644 88.752 134.366 88.752 135.347Z" fill="#263238"/>
<path d="M81.4764 135.347C81.528 136.276 80.754 137.05 79.8253 137.05C78.8965 137.05 78.1225 136.276 78.0709 135.347C78.0193 134.418 78.7933 133.644 79.7221 133.644C80.6508 133.644 81.4248 134.366 81.4764 135.347Z" fill="#263238"/>
<path d="M103.406 135.347C103.458 136.276 102.684 137.05 101.755 137.05C100.826 137.05 100.052 136.276 100.001 135.347C99.9493 134.418 100.723 133.644 101.652 133.644C102.581 133.644 103.355 134.366 103.406 135.347Z" fill="#263238"/>
<path d="M110.734 135.347C110.785 136.276 110.011 137.05 109.082 137.05C108.154 137.05 107.38 136.276 107.328 135.347C107.276 134.418 108.05 133.644 108.979 133.644C109.908 133.644 110.682 134.366 110.734 135.347Z" fill="#263238"/>
<path d="M172.292 89.9387C172.963 91.0223 173.531 92.1059 174.15 93.1895C174.718 94.2731 175.285 95.4083 175.801 96.5435C176.833 98.8139 177.762 101.136 178.433 103.613C178.536 103.922 178.588 104.232 178.691 104.542L178.794 105.006L178.846 105.264L178.897 105.677C179.052 106.709 178.897 107.586 178.742 108.36C178.381 109.856 177.762 111.043 177.143 112.23C175.853 114.5 174.305 116.41 172.55 118.267L170.383 116.616C171.467 114.604 172.499 112.436 173.273 110.424C173.634 109.392 173.944 108.36 174.047 107.534C174.098 107.122 174.047 106.76 173.995 106.606L173.789 105.986C173.686 105.728 173.634 105.47 173.531 105.212C172.808 103.148 171.828 101.033 170.796 98.9687C169.764 96.9047 168.68 94.8407 167.545 92.8799L172.292 89.9387Z" fill="#FF8B7B"/>
<path d="M170.899 115.791L168.526 117.029L171.26 120.228C171.26 120.228 172.963 119.093 173.015 117.339L170.899 115.791Z" fill="#FF8B7B"/>
<path d="M165.378 119.041L168.268 121.363L171.26 120.228L168.526 117.08L165.378 119.041Z" fill="#FF8B7B"/>
<path d="M155.419 73.0657C155.368 73.3753 155.161 73.5301 154.955 73.5301C154.748 73.4785 154.645 73.2204 154.697 72.9624C154.748 72.6528 154.955 72.498 155.161 72.498C155.368 72.498 155.471 72.7561 155.419 73.0657Z" fill="#263238"/>
<path d="M155.161 73.53C155.161 73.53 154.181 75.078 153.304 75.6972C153.716 76.2648 154.645 76.2132 154.645 76.2132L155.161 73.53Z" fill="#FF5652"/>
<path d="M154.232 83.6436V80.238L158.722 80.754C158.722 80.754 158.67 83.6436 156.142 84.5208L154.232 83.6436Z" fill="#FF8B7B"/>
<path d="M155.522 77.8645L158.67 78.7417L158.722 80.8057L154.232 80.2897L155.522 77.8645Z" fill="#FF8B7B"/>
<path opacity="0.2" d="M158.67 78.7415L155.522 77.8127L154.903 78.9995C154.955 81.0119 156.193 82.6115 157.793 83.3855C158.67 82.2503 158.722 80.8055 158.722 80.8055L158.67 78.7415Z" fill="black"/>
<path d="M156.761 71.6724C156.812 71.6724 156.864 71.6724 156.864 71.6208C156.916 71.5692 156.916 71.466 156.864 71.3628C156.193 70.6404 155.419 70.7952 155.419 70.7952C155.316 70.7952 155.264 70.8984 155.264 71.0016C155.264 71.1048 155.368 71.1564 155.471 71.1564C155.471 71.1564 156.09 71.0532 156.606 71.6208C156.658 71.6724 156.709 71.6724 156.761 71.6724Z" fill="#263238"/>
<path d="M163.366 78.2773C162.85 80.9089 162.54 84.6241 164.398 86.3785C164.398 86.3785 163.675 89.0618 158.722 89.0618C153.304 89.0618 156.09 86.6881 156.09 86.6881C158.36 85.9657 158.309 83.4373 157.793 81.3733L163.366 78.2773Z" fill="#FF8B7B"/>
<path d="M165.378 88.1327C165.842 87.4619 165.842 85.2947 165.326 84.8819C164.501 84.2627 160.94 84.1079 156.142 85.2431C156.658 87.3587 155.574 88.4423 155.574 88.4423L165.378 88.1327Z" fill="#E1CFB9"/>
<path d="M181.529 210.631C181.168 210.734 180.806 210.734 180.6 210.58C180.548 210.528 180.445 210.373 180.497 210.167C180.548 210.064 180.6 209.96 180.703 209.909C181.168 209.651 182.303 210.115 182.354 210.167C182.406 210.167 182.406 210.218 182.406 210.218C182.406 210.27 182.406 210.27 182.354 210.322C182.251 210.425 181.89 210.58 181.529 210.631ZM180.961 210.064C180.91 210.064 180.91 210.064 180.858 210.115C180.806 210.167 180.755 210.218 180.703 210.27C180.652 210.425 180.703 210.476 180.755 210.476C180.961 210.631 181.684 210.476 182.2 210.27C181.838 210.167 181.271 210.012 180.961 210.064Z" fill="#E1CFB9"/>
<path d="M182.406 210.373C181.942 210.27 181.064 209.651 181.064 209.238C181.064 209.186 181.064 209.032 181.271 208.98C181.374 208.928 181.529 208.928 181.632 209.032C182.096 209.29 182.406 210.27 182.458 210.322C182.509 210.27 182.458 210.322 182.406 210.373C182.458 210.322 182.406 210.373 182.406 210.373ZM181.374 209.083C181.219 209.135 181.219 209.186 181.219 209.186C181.219 209.444 181.787 209.909 182.251 210.115C182.148 209.806 181.89 209.238 181.58 209.083C181.529 209.083 181.477 209.083 181.374 209.083Z" fill="#E1CFB9"/>
<path d="M154.748 211.25C154.284 211.25 153.82 211.199 153.665 210.992C153.613 210.941 153.562 210.786 153.665 210.631C153.716 210.528 153.82 210.476 153.923 210.425C154.542 210.27 155.78 210.992 155.832 210.992C155.884 210.992 155.884 211.044 155.884 211.096C155.884 211.147 155.832 211.147 155.832 211.147C155.626 211.199 155.161 211.25 154.748 211.25ZM154.129 210.58C154.078 210.58 154.026 210.58 153.974 210.58C153.871 210.58 153.82 210.631 153.82 210.683C153.768 210.786 153.768 210.838 153.82 210.889C153.974 211.147 154.903 211.147 155.574 211.044C155.213 210.838 154.594 210.58 154.129 210.58Z" fill="#E1CFB9"/>
<path d="M155.832 211.147C155.832 211.147 155.78 211.147 155.832 211.147C155.368 210.941 154.49 210.167 154.542 209.754C154.542 209.651 154.645 209.548 154.852 209.496C155.006 209.496 155.213 209.548 155.316 209.651C155.78 210.012 155.884 210.993 155.884 211.044C155.935 211.096 155.884 211.147 155.832 211.147C155.884 211.147 155.832 211.147 155.832 211.147ZM154.955 209.702H154.903C154.748 209.702 154.748 209.754 154.748 209.806C154.697 210.064 155.316 210.683 155.729 210.941C155.677 210.631 155.574 210.064 155.264 209.806C155.161 209.702 155.058 209.702 154.955 209.702Z" fill="#E1CFB9"/>
<path d="M159.805 211.096H156.193L155.832 202.685H159.444L159.805 211.096Z" fill="#FF8B7B"/>
<path d="M186.431 209.393L182.922 210.167L179.362 202.324L182.87 201.55L186.431 209.393Z" fill="#FF8B7B"/>
<path d="M182.561 209.806L186.534 208.929C186.689 208.877 186.844 208.98 186.895 209.083L188.288 212.076C188.443 212.386 188.237 212.747 187.927 212.799C186.534 213.057 185.812 213.16 184.109 213.521C183.025 213.779 180.6 214.347 179.104 214.656C177.659 214.966 177.091 213.573 177.659 213.263C180.239 212.076 181.374 211.044 182.045 210.064C182.148 209.961 182.354 209.857 182.561 209.806Z" fill="#263238"/>
<path d="M156.193 210.631H160.166C160.321 210.631 160.424 210.735 160.476 210.889L161.198 214.14C161.25 214.45 161.044 214.811 160.682 214.811C159.238 214.811 157.174 214.708 155.368 214.708C153.252 214.708 151.446 214.811 148.969 214.811C147.473 214.811 147.06 213.315 147.679 213.16C150.517 212.541 152.839 212.489 155.316 210.941C155.626 210.786 155.884 210.631 156.193 210.631Z" fill="#263238"/>
<path d="M170.899 87.2039C174.305 87.9779 177.091 96.6467 177.091 96.6467L170.28 101.858C170.28 101.858 167.752 99.4847 166.668 95.1503C165.481 90.6095 167.39 86.3783 170.899 87.2039Z" fill="#E1CFB9"/>
<path opacity="0.4" d="M170.899 87.2039C174.305 87.9779 177.091 96.6467 177.091 96.6467L170.28 101.858C170.28 101.858 167.752 99.4847 166.668 95.1503C165.481 90.6095 167.39 86.3783 170.899 87.2039Z" fill="black"/>
<path d="M152.994 97.5757C152.168 98.5045 151.291 99.3301 150.414 100.156C150.001 100.569 149.537 100.981 149.072 101.394L148.402 102.013L148.247 102.168C148.144 102.22 148.04 102.323 147.937 102.426C147.731 102.581 147.473 102.787 146.957 102.994C146.699 103.097 146.338 103.252 145.718 103.252C145.409 103.252 144.996 103.2 144.635 103.045C144.222 102.89 143.861 102.632 143.603 102.374C143.087 101.807 142.88 101.343 142.777 101.033C142.674 100.723 142.674 100.465 142.622 100.259C142.571 99.8461 142.622 99.5881 142.622 99.3301C142.622 99.0721 142.674 98.8657 142.726 98.6593C142.88 97.8853 143.087 97.2145 143.345 96.5953C143.603 95.9761 143.861 95.3569 144.17 94.7377C144.48 94.0669 144.79 93.6025 145.151 93.0349C146.441 90.9193 147.937 88.9585 149.537 87.1009C151.136 85.2949 152.891 83.5921 154.852 82.0957L156.761 84.0565C155.419 85.8625 154.129 87.7717 152.891 89.6293C151.704 91.5385 150.569 93.4477 149.588 95.4085C149.382 95.8729 149.072 96.4405 148.918 96.8533C148.711 97.3177 148.556 97.7821 148.453 98.2465C148.298 98.7109 148.195 99.1753 148.144 99.5365C148.144 99.6397 148.144 99.6913 148.144 99.7429C148.144 99.7945 148.144 99.7945 148.144 99.6913C148.144 99.6397 148.144 99.5365 148.092 99.3301C148.04 99.1753 147.937 98.8141 147.473 98.3497C147.266 98.1433 146.957 97.9369 146.647 97.8337C146.338 97.7305 145.976 97.6789 145.77 97.6789C145.306 97.6789 145.099 97.7821 144.944 97.8337C144.686 97.9369 144.686 97.9885 144.686 97.9369L144.893 97.7821L145.512 97.2145L146.75 96.0793C147.576 95.3053 148.402 94.4797 149.176 93.7057L152.994 97.5757Z" fill="#FF8B7B"/>
<path opacity="0.2" d="M167.958 93.6025C169.816 95.4085 170.383 98.7625 170.538 101.652L170.228 101.91C170.228 101.91 167.7 99.5365 166.616 95.2021C166.565 94.9441 166.513 94.6345 166.462 94.3765L167.958 93.6025Z" fill="black"/>
<path d="M149.382 90.8161C148.66 94.7377 148.195 102.787 150.311 118.732H169.764C169.919 115.739 168.01 101.239 170.899 87.1525C170.899 87.1525 167.597 86.4817 164.398 86.3269C161.921 86.2237 158.309 86.1205 156.142 86.3269C155.213 86.4301 154.336 86.5333 153.562 86.6881C151.446 87.1009 149.795 88.7521 149.382 90.8161Z" fill="#E1CFB9"/>
<path opacity="0.4" d="M149.382 90.8161C148.66 94.7377 148.195 102.787 150.311 118.732H169.764C169.919 115.739 168.01 101.239 170.899 87.1525C170.899 87.1525 167.597 86.4817 164.398 86.3269C161.921 86.2237 158.309 86.1205 156.142 86.3269C155.213 86.4301 154.336 86.5333 153.562 86.6881C151.446 87.1009 149.795 88.7521 149.382 90.8161Z" fill="black"/>
<path opacity="0.2" d="M152.375 96.6469L148.866 95.8213C148.763 97.9369 148.763 100.568 148.918 103.819C150.517 101.962 152.581 99.1237 152.375 96.6469Z" fill="black"/>
<path opacity="0.2" d="M155.832 202.685L156.038 207.019H159.65L159.444 202.685H155.832Z" fill="black"/>
<path opacity="0.2" d="M182.922 201.55L179.362 202.324L181.168 206.348L184.728 205.626L182.922 201.55Z" fill="black"/>
<path d="M165.068 74.4073C164.14 77.8645 163.778 79.9801 161.611 81.4249C158.36 83.5921 154.336 81.1153 154.232 77.4001C154.129 74.0977 155.677 68.9377 159.392 68.2669C163.108 67.5445 165.997 70.8985 165.068 74.4073Z" fill="#FF8B7B"/>
<path d="M156.916 74.5104C156.761 74.046 155.935 70.434 156.709 69.5052C157.483 68.5764 166.049 69.2472 167.339 70.4856C169.454 72.5496 168.01 74.4072 165.688 76.7808C163.933 78.5868 163.882 80.5992 163.004 80.9088C161.456 81.4248 159.083 80.9604 158.618 79.3092C158.154 77.7096 156.916 74.5104 156.916 74.5104Z" fill="#263238"/>
<path d="M166.307 66.4092C163.262 65.1192 157.586 66.564 154.49 65.79C154.387 67.3896 155.316 69.918 158.412 70.6404C158.412 70.6404 162.798 71.466 166.152 71.3628C169.506 71.208 168.887 67.4928 166.307 66.4092Z" fill="#263238"/>
<path d="M166.771 70.6404C166.771 70.6404 168.629 70.8468 169.97 70.0212C170.538 71.3628 167.442 71.7756 166.771 70.6404Z" fill="#263238"/>
<path d="M158.618 74.6652C158.567 75.594 158.102 76.4712 157.586 77.0904C156.812 77.9676 155.987 77.4 155.832 76.368C155.729 75.3876 155.987 73.788 156.916 73.3236C157.896 72.8076 158.67 73.5816 158.618 74.6652Z" fill="#FF8B7B"/>
<path d="M157.225 118.732C157.225 118.732 161.353 146.492 163.624 156.864C166.1 168.268 179.362 205.884 179.362 205.884L185.863 204.491C185.863 204.491 176.575 173.789 174.511 157.896C172.912 145.667 169.764 118.732 169.764 118.732H157.225Z" fill="#E1CFB9"/>
<path d="M177.814 203.717C177.762 203.717 179 206.09 179 206.09L186.328 204.491L185.708 202.272L177.814 203.717Z" fill="#263238"/>
<path opacity="0.3" d="M159.805 128.639C164.552 129.568 164.088 147.318 163.469 156.451C162.076 150.001 160.063 137.566 158.722 128.742C159.083 128.587 159.444 128.536 159.805 128.639Z" fill="black"/>
<path d="M150.311 118.732C150.311 118.732 149.795 145.873 150.208 156.916C150.62 168.422 154.645 206.142 154.645 206.142H160.786C160.786 206.142 160.992 169.145 161.302 157.793C161.611 145.46 163.108 118.732 163.108 118.732H150.311Z" fill="#E1CFB9"/>
<path d="M153.458 203.717C153.407 203.717 153.82 206.245 153.82 206.245H161.302L161.508 203.975L153.458 203.717Z" fill="#263238"/>
<path d="M157.019 92.0028C158.773 96.6984 148.556 102.22 148.556 102.22L144.119 96.5436C144.119 96.5436 147.06 90.6612 150.672 88.0296C155.161 84.7272 155.677 88.4424 157.019 92.0028Z" fill="#E1CFB9"/>
<path opacity="0.4" d="M157.019 92.0028C158.773 96.6984 148.556 102.22 148.556 102.22L144.119 96.5436C144.119 96.5436 147.06 90.6612 150.672 88.0296C155.161 84.7272 155.677 88.4424 157.019 92.0028Z" fill="black"/>
<path d="M197.06 56.3988C207.348 56.3988 215.688 51.0854 215.688 44.5308C215.688 37.9763 207.348 32.6628 197.06 32.6628C186.773 32.6628 178.433 37.9763 178.433 44.5308C178.433 51.0854 186.773 56.3988 197.06 56.3988Z" fill="#E1CFB9"/>
<path d="M190.301 50.5164C189.269 50.5164 188.237 50.2068 187.36 49.5876C186.173 48.762 185.399 47.5752 185.141 46.182C184.676 43.4988 186.482 40.8156 189.114 40.1964C191.281 39.6804 193.5 40.6092 194.687 42.5184L206.658 40.0416C207.638 39.8352 208.619 40.4028 208.825 41.3316C208.928 41.796 208.877 42.312 208.619 42.7248C208.361 43.1376 207.948 43.4472 207.432 43.5504L207.122 43.602C207.019 43.602 206.968 43.6536 206.916 43.7568C206.864 43.86 206.864 43.9116 206.916 44.0148L207.122 44.5824C207.277 44.9436 207.122 45.3564 206.813 45.5628C206.555 45.7176 206.4 45.9756 206.348 46.2852C206.297 46.6464 206.039 46.956 205.729 47.0076L205.471 47.0592C205.162 47.1108 204.8 46.956 204.594 46.6464C204.388 46.2852 203.975 46.0788 203.51 46.182C203.098 46.2852 202.788 46.5948 202.736 47.0592C202.685 47.4204 202.427 47.73 202.117 47.7816L201.859 47.8332C201.55 47.8848 201.188 47.73 200.982 47.4204C200.827 47.1624 200.569 46.956 200.26 46.956C199.898 46.9044 199.589 46.5432 199.589 46.182V45.6144C199.589 45.5112 199.537 45.4596 199.486 45.3564C199.434 45.3048 199.331 45.2532 199.228 45.3048L195.409 46.0788C195.1 48.246 193.448 49.9488 191.281 50.4132C191.023 50.4648 190.662 50.5164 190.301 50.5164ZM189.269 40.7124C186.895 41.28 185.244 43.6536 185.708 46.0788C185.915 47.3688 186.637 48.4524 187.669 49.1748C188.701 49.8972 189.991 50.1552 191.281 49.8972C193.294 49.4844 194.79 47.8332 194.996 45.8208V45.6144L199.176 44.7372C199.434 44.6856 199.692 44.7372 199.847 44.892C200.053 45.0468 200.156 45.2532 200.156 45.5112V46.0788C200.156 46.2336 200.26 46.3368 200.414 46.3884C200.879 46.44 201.292 46.7496 201.498 47.1108C201.55 47.214 201.653 47.3172 201.808 47.2656L202.066 47.214C202.22 47.1624 202.272 47.0592 202.272 46.956C202.324 46.2852 202.84 45.7692 203.459 45.666C204.078 45.5112 204.749 45.8208 205.058 46.3884C205.11 46.4916 205.213 46.5948 205.368 46.5432L205.626 46.4916C205.781 46.44 205.832 46.3368 205.832 46.2336C205.884 45.7692 206.142 45.3564 206.555 45.15C206.658 45.0984 206.71 44.9436 206.658 44.7888L206.452 44.2212C206.348 44.0148 206.4 43.7568 206.503 43.4988C206.606 43.2924 206.813 43.1376 207.071 43.086L207.38 43.0344C207.742 42.9828 208 42.7764 208.206 42.4668C208.412 42.1572 208.464 41.796 208.361 41.4864C208.206 40.8156 207.484 40.4028 206.761 40.5576L194.429 43.086L194.326 42.9312C193.397 41.1768 191.333 40.248 189.269 40.7124ZM190.352 48.6072C189.733 48.6072 189.114 48.4008 188.546 48.0396C187.824 47.5752 187.308 46.8012 187.102 45.924C186.947 45.0468 187.102 44.1696 187.566 43.4472C188.03 42.7248 188.804 42.2088 189.682 42.054C190.559 41.8992 191.436 42.054 192.158 42.5184C192.881 42.9828 193.397 43.7568 193.552 44.634C193.706 45.5112 193.552 46.3884 193.087 47.1108C192.623 47.8332 191.849 48.3492 190.972 48.5556C190.765 48.6072 190.559 48.6072 190.352 48.6072ZM190.352 42.5184C190.146 42.5184 189.991 42.5184 189.785 42.57C189.062 42.7248 188.443 43.1376 188.03 43.7568C187.618 44.376 187.463 45.0984 187.618 45.8724C187.772 46.5948 188.185 47.214 188.804 47.6268C189.424 48.0396 190.146 48.1944 190.92 48.0396C191.642 47.8848 192.262 47.472 192.674 46.8528C193.087 46.2336 193.242 45.5112 193.087 44.7372C192.932 44.0148 192.52 43.3956 191.9 42.9828C191.436 42.6732 190.868 42.5184 190.352 42.5184Z" fill="white"/>
<path opacity="0.6" d="M181.89 63.4164C185.281 63.4164 188.03 61.6607 188.03 59.4948C188.03 57.329 185.281 55.5732 181.89 55.5732C178.499 55.5732 175.75 57.329 175.75 59.4948C175.75 61.6607 178.499 63.4164 181.89 63.4164Z" fill="#E1CFB9"/>
<path opacity="0.3" d="M172.138 64.9643C173.534 64.9643 174.666 64.2482 174.666 63.3647C174.666 62.4813 173.534 61.7651 172.138 61.7651C170.741 61.7651 169.609 62.4813 169.609 63.3647C169.609 64.2482 170.741 64.9643 172.138 64.9643Z" fill="#E1CFB9"/>
</svg>
