<svg width="24" height="23" viewBox="0 0 24 23" fill="none" xmlns="http://www.w3.org/2000/svg">
<path d="M9.1437 19.8025V16.8802C9.14369 16.1397 9.77564 15.5381 10.5584 15.5334H13.4326C14.2188 15.5334 14.8562 16.1364 14.8562 16.8802V19.7941C14.8562 20.4364 15.404 20.9583 16.0829 20.963H18.0438C18.9596 20.9653 19.8387 20.6227 20.4871 20.0108C21.1355 19.399 21.5 18.5682 21.5 17.7019V9.40081C21.4999 8.70097 21.172 8.03713 20.6046 7.58813L13.9429 2.5482C12.7785 1.66666 11.1153 1.69513 9.98536 2.61596L3.46699 7.58813C2.87272 8.02389 2.51753 8.6897 2.49998 9.40081V17.6934C2.49998 19.4992 4.04736 20.963 5.95615 20.963H7.87226C8.19914 20.9653 8.51346 20.844 8.74544 20.6261C8.97743 20.4083 9.1079 20.1118 9.10789 19.8025H9.1437Z" fill="#E1CFB9"/>
</svg>
