<svg width="24" height="24" viewBox="0 0 24 24" fill="none" xmlns="http://www.w3.org/2000/svg">
<path d="M19.4299 12.98C19.4699 12.66 19.4999 12.34 19.4999 12C19.4999 11.66 19.4699 11.34 19.4299 11.02L21.5399 9.37C21.7299 9.22 21.7799 8.95 21.6599 8.73L19.6599 5.27C19.5699 5.11 19.3999 5.02 19.2199 5.02C19.1599 5.02 19.0999 5.03 19.0499 5.05L16.5599 6.05C16.0399 5.65 15.4799 5.32 14.8699 5.07L14.4899 2.42C14.4599 2.18 14.2499 2 13.9999 2H9.99996C9.74996 2 9.53996 2.18 9.50996 2.42L9.12996 5.07C8.51996 5.32 7.95996 5.66 7.43996 6.05L4.94996 5.05C4.88996 5.03 4.82996 5.02 4.76996 5.02C4.59996 5.02 4.42996 5.11 4.33996 5.27L2.33996 8.73C2.20996 8.95 2.26996 9.22 2.45996 9.37L4.56996 11.02C4.52996 11.34 4.49996 11.67 4.49996 12C4.49996 12.33 4.52996 12.66 4.56996 12.98L2.45996 14.63C2.26996 14.78 2.21996 15.05 2.33996 15.27L4.33996 18.73C4.42996 18.89 4.59996 18.98 4.77996 18.98C4.83996 18.98 4.89996 18.97 4.94996 18.95L7.43996 17.95C7.95996 18.35 8.51996 18.68 9.12996 18.93L9.50996 21.58C9.53996 21.82 9.74996 22 9.99996 22H13.9999C14.2499 22 14.4599 21.82 14.4899 21.58L14.8699 18.93C15.4799 18.68 16.0399 18.34 16.5599 17.95L19.0499 18.95C19.1099 18.97 19.1699 18.98 19.2299 18.98C19.3999 18.98 19.5699 18.89 19.6599 18.73L21.6599 15.27C21.7799 15.05 21.7299 14.78 21.5399 14.63L19.4299 12.98ZM17.4499 11.27C17.4899 11.58 17.4999 11.79 17.4999 12C17.4999 12.21 17.4799 12.43 17.4499 12.73L17.3099 13.86L18.1999 14.56L19.2799 15.4L18.5799 16.61L17.3099 16.1L16.2699 15.68L15.3699 16.36C14.9399 16.68 14.5299 16.92 14.1199 17.09L13.0599 17.52L12.8999 18.65L12.6999 20H11.3L11.11 18.65L10.95 17.52L9.88996 17.09C9.45996 16.91 9.05996 16.68 8.65996 16.38L7.74996 15.68L6.68996 16.11L5.41996 16.62L4.71996 15.41L5.79996 14.57L6.68996 13.87L6.54996 12.74C6.51996 12.43 6.49996 12.2 6.49996 12C6.49996 11.8 6.51996 11.57 6.54996 11.27L6.68996 10.14L5.79996 9.44L4.71996 8.6L5.41996 7.39L6.68996 7.9L7.72996 8.32L8.62996 7.64C9.05996 7.32 9.46996 7.08 9.87996 6.91L10.94 6.48L11.1 5.35L11.3 4H12.6899L12.8799 5.35L13.0399 6.48L14.0999 6.91C14.5299 7.09 14.9299 7.32 15.3299 7.62L16.2399 8.32L17.2999 7.89L18.5699 7.38L19.2699 8.59L18.1999 9.44L17.3099 10.14L17.4499 11.27ZM12 8C9.78996 8 7.99996 9.79 7.99996 12C7.99996 14.21 9.78996 16 12 16C14.2099 16 15.9999 14.21 15.9999 12C15.9999 9.79 14.2099 8 12 8ZM12 14C10.9 14 9.99996 13.1 9.99996 12C9.99996 10.9 10.9 10 12 10C13.0999 10 13.9999 10.9 13.9999 12C13.9999 13.1 13.0999 14 12 14Z" fill="black"/>
</svg>
