<svg width="21" height="20" viewBox="0 0 21 20" fill="none" xmlns="http://www.w3.org/2000/svg">
<path d="M7.79597 16.2431L1.03551 16.2431" stroke="#E1CFB9" stroke-width="2" stroke-linecap="round"/>
<path d="M19.9645 16.2431L7.79592 16.2431" stroke="#FEAD3B" stroke-opacity="0.5" stroke-width="2" stroke-linecap="round"/>
<path d="M10.7137 16.1171C10.7137 14.4226 9.32298 13.049 7.60738 13.049C5.89179 13.049 4.50103 14.4226 4.50103 16.1171C4.50103 17.8116 5.89179 19.1852 7.60738 19.1852C9.32298 19.1852 10.7137 17.8116 10.7137 16.1171Z" fill="white" stroke="#E1CFB9" stroke-width="1.5"/>
<path d="M13.204 3.71872L19.9645 3.71872" stroke="#E1CFB9" stroke-width="2" stroke-linecap="round"/>
<path d="M1.03545 3.71872L13.2041 3.71872" stroke="#FEAD3B" stroke-opacity="0.5" stroke-width="2" stroke-linecap="round"/>
<path d="M10.2863 3.84469C10.2863 5.53915 11.677 6.91279 13.3926 6.91279C15.1082 6.91279 16.499 5.53915 16.499 3.84469C16.499 2.15022 15.1082 0.776589 13.3926 0.776589C11.677 0.776589 10.2863 2.15022 10.2863 3.84469Z" fill="white" stroke="#E1CFB9" stroke-width="1.5"/>
</svg>
