<svg width="18" height="18" viewBox="0 0 18 18" fill="none" xmlns="http://www.w3.org/2000/svg">
<path d="M8.02813 0.571964C8.42036 -0.19066 9.51061 -0.190658 9.90284 0.571966L11.9839 4.61818C12.1309 4.90408 12.4004 5.10724 12.7157 5.16992L17.0817 6.03771C17.8812 6.19663 18.2055 7.16418 17.6631 7.7728L14.5431 11.2741C14.3414 11.5003 14.247 11.8024 14.2837 12.1032L14.8597 16.8161C14.9619 17.6517 14.0915 18.264 13.3396 17.8855L9.43939 15.9224C9.14127 15.7723 8.7897 15.7723 8.49158 15.9224L4.59141 17.8855C3.83945 18.264 2.9691 17.6517 3.07123 16.8161L3.64724 12.1032C3.68401 11.8024 3.58952 11.5003 3.38791 11.2741L0.267845 7.7728C-0.274509 7.16418 0.0497307 6.19663 0.849297 6.03771L5.21526 5.16992C5.53059 5.10724 5.80008 4.90408 5.94712 4.61817L8.02813 0.571964Z" fill="#E1CFB9"/>
</svg>
