<svg width="25" height="29" viewBox="0 0 25 29" fill="none" xmlns="http://www.w3.org/2000/svg">
<g filter="url(#filter0_d_1_764)">
<path d="M12.4105 1.39302C14.6272 1.39302 16.7532 2.2736 18.3206 3.84105C19.8881 5.4085 20.7686 7.53442 20.7686 9.75113C20.7686 13.7449 18.0732 17.4211 12.7839 20.7866C12.6722 20.8575 12.5428 20.8951 12.4105 20.8951C12.2783 20.8951 12.1488 20.8575 12.0372 20.7866C6.74791 17.4211 4.05242 13.7449 4.05242 9.75113C4.05242 7.53442 4.933 5.4085 6.50045 3.84105C8.0679 2.2736 10.1938 1.39302 12.4105 1.39302ZM12.4105 6.9651C11.6716 6.9651 10.963 7.25862 10.4405 7.78111C9.91802 8.30359 9.6245 9.01223 9.6245 9.75113C9.6245 10.49 9.91802 11.1987 10.4405 11.7212C10.963 12.2436 11.6716 12.5372 12.4105 12.5372C13.1494 12.5372 13.8581 12.2436 14.3806 11.7212C14.903 11.1987 15.1966 10.49 15.1966 9.75113C15.1966 9.01223 14.903 8.30359 14.3806 7.78111C13.8581 7.25862 13.1494 6.9651 12.4105 6.9651Z" fill="#EF7822"/>
</g>
<defs>
<filter id="filter0_d_1_764" x="-2.78604" y="0" width="30.3931" height="30.3931" filterUnits="userSpaceOnUse" color-interpolation-filters="sRGB">
<feFlood flood-opacity="0" result="BackgroundImageFix"/>
<feColorMatrix in="SourceAlpha" type="matrix" values="0 0 0 0 0 0 0 0 0 0 0 0 0 0 0 0 0 0 127 0" result="hardAlpha"/>
<feOffset dy="4"/>
<feGaussianBlur stdDeviation="2"/>
<feComposite in2="hardAlpha" operator="out"/>
<feColorMatrix type="matrix" values="0 0 0 0 0 0 0 0 0 0 0 0 0 0 0 0 0 0 0.25 0"/>
<feBlend mode="normal" in2="BackgroundImageFix" result="effect1_dropShadow_1_764"/>
<feBlend mode="normal" in="SourceGraphic" in2="effect1_dropShadow_1_764" result="shape"/>
</filter>
</defs>
</svg>
