<svg width="45" height="45" viewBox="0 0 45 45" fill="none" xmlns="http://www.w3.org/2000/svg">
<g clip-path="url(#clip0_86_477)">
<rect width="45" height="45" rx="15" fill="#E1CFB9"/>
<path d="M24 17.3668C24 16.934 23.5523 16.5833 23 16.5833C22.4477 16.5833 22 16.934 22 17.3668H24ZM22 30.2001C22 30.6328 22.4477 30.9836 23 30.9836C23.5523 30.9836 24 30.6328 24 30.2001H22ZM22 17.3668V30.2001H24V17.3668H22Z" fill="white"/>
<path d="M16 23C15.4477 23 15 23.3508 15 23.7835C15 24.2162 15.4477 24.567 16 24.567V23ZM30 24.567C30.5523 24.567 31 24.2162 31 23.7835C31 23.3508 30.5523 23 30 23V24.567ZM16 24.567H30V23H16V24.567Z" fill="white"/>
</g>
<defs>
<clipPath id="clip0_86_477">
<rect width="45" height="45" fill="white"/>
</clipPath>
</defs>
</svg>
