<svg width="21" height="23" viewBox="0 0 21 23" fill="none" xmlns="http://www.w3.org/2000/svg">
<path fill-rule="evenodd" clip-rule="evenodd" d="M10.5253 1.91052C6.49238 1.89556 3.19829 5.39833 3.06663 9.78281L3.06258 10.055C3.12961 12.204 3.7994 14.2526 4.97908 15.9404L5.25614 16.3351C6.38216 17.8982 7.72031 19.2701 9.22282 20.4008L9.58458 20.6667L9.63737 20.7119C10.1524 21.1159 10.8477 21.1159 11.3627 20.7119L11.4066 20.6725C12.5988 19.8284 13.6982 18.8367 14.683 17.7168C16.6851 15.4032 17.8918 12.8108 17.9374 10.1779L17.9375 10.0802C17.9511 5.66634 14.7524 2.05917 10.7485 1.91495L10.5253 1.91052ZM10.5208 3.35999C13.827 3.37233 16.5113 6.25618 16.611 9.84753L16.6138 10.1642C16.5755 12.3715 15.5168 14.6459 13.7259 16.7156C12.8126 17.754 11.7887 18.6771 10.6782 19.4622L10.6042 19.5229C10.5444 19.5796 10.4557 19.5796 10.3959 19.5229L10.3239 19.4637C8.66956 18.2845 7.21758 16.7958 6.0344 15.0655C5.08136 13.7019 4.51662 12.0716 4.40294 10.3708L4.38624 10.0297C4.39747 6.41169 7.03099 3.47224 10.3106 3.36309L10.5208 3.35999ZM10.5 7.06991C8.93517 7.06991 7.66661 8.45905 7.66661 10.1726C7.66661 11.8862 8.93517 13.2754 10.5 13.2754C12.0649 13.2754 13.3334 11.8862 13.3334 10.1726C13.3334 8.45905 12.0649 7.06991 10.5 7.06991ZM10.5 8.51939C11.3338 8.51939 12.0098 9.25958 12.0098 10.1726C12.0098 11.0857 11.3338 11.8259 10.5 11.8259C9.66621 11.8259 8.99027 11.0857 8.99027 10.1726C8.99027 9.25958 9.66621 8.51939 10.5 8.51939Z" fill="black"/>
<path d="M3.06663 9.78281L2.56531 9.76775L2.56519 9.77535L3.06663 9.78281ZM10.5253 1.91052L10.5352 1.40906L10.5271 1.40903L10.5253 1.91052ZM3.06258 10.055L2.56114 10.0475L2.56097 10.059L2.56133 10.0706L3.06258 10.055ZM4.97908 15.9404L4.56804 16.2277L4.56862 16.2286L4.97908 15.9404ZM5.25614 16.3351L4.84564 16.6233L4.84924 16.6283L5.25614 16.3351ZM9.22282 20.4008L8.92124 20.8016L8.92584 20.8049L9.22282 20.4008ZM9.58458 20.6667L9.91095 20.2859L9.89669 20.2737L9.88156 20.2626L9.58458 20.6667ZM9.63737 20.7119L9.31101 21.0927L9.31928 21.0998L9.32786 21.1065L9.63737 20.7119ZM11.3627 20.7119L11.6722 21.1065L11.6852 21.0963L11.6975 21.0852L11.3627 20.7119ZM11.4066 20.6725L11.1168 20.2632L11.0933 20.2799L11.0717 20.2992L11.4066 20.6725ZM14.683 17.7168L15.0596 18.048L15.0622 18.045L14.683 17.7168ZM17.9374 10.1779L18.4389 10.1866L18.4389 10.1785L17.9374 10.1779ZM17.9375 10.0802L17.436 10.0786L17.436 10.0796L17.9375 10.0802ZM10.7485 1.91495L10.7666 1.41372L10.7585 1.41356L10.7485 1.91495ZM16.611 9.84753L17.1126 9.84305L17.1123 9.83362L16.611 9.84753ZM10.5208 3.35999L10.5227 2.85841L10.5134 2.85855L10.5208 3.35999ZM16.6138 10.1642L17.1154 10.1729L17.1153 10.1597L16.6138 10.1642ZM13.7259 16.7156L14.1025 17.0468L14.1051 17.0438L13.7259 16.7156ZM10.6782 19.4622L10.3887 19.0527L10.374 19.0631L10.36 19.0745L10.6782 19.4622ZM10.6042 19.5229L10.286 19.1353L10.2722 19.1466L10.2593 19.1588L10.6042 19.5229ZM10.3959 19.5229L10.7407 19.1588L10.7281 19.1469L10.7148 19.1359L10.3959 19.5229ZM10.3239 19.4637L10.6428 19.0766L10.6293 19.0655L10.615 19.0553L10.3239 19.4637ZM6.0344 15.0655L6.44838 14.7824L6.44545 14.7783L6.0344 15.0655ZM4.40294 10.3708L3.90197 10.3953L3.90257 10.4042L4.40294 10.3708ZM4.38624 10.0297L3.88475 10.0282L3.88471 10.0412L3.88535 10.0543L4.38624 10.0297ZM10.3106 3.36309L10.3032 2.86157L10.2939 2.86187L10.3106 3.36309ZM3.5679 9.79786C3.69269 5.64217 6.80335 2.39821 10.5234 2.41201L10.5271 1.40903C6.18141 1.39291 2.70389 5.15449 2.56536 9.76776L3.5679 9.79786ZM3.56402 10.0624L3.56807 9.79027L2.56519 9.77535L2.56114 10.0475L3.56402 10.0624ZM5.39012 15.6531C4.26843 14.0483 3.62795 12.0949 3.56383 10.0393L2.56133 10.0706C2.63128 12.3132 3.33036 14.4569 4.56804 16.2277L5.39012 15.6531ZM5.6666 16.047L5.38954 15.6523L4.56862 16.2286L4.84567 16.6233L5.6666 16.047ZM9.52438 20.0001C8.06323 18.9005 6.76032 17.5651 5.66303 16.042L4.84924 16.6283C6.00399 18.2312 7.37738 19.6396 8.92126 20.8015L9.52438 20.0001ZM9.88156 20.2626L9.5198 19.9967L8.92584 20.8049L9.28761 21.0708L9.88156 20.2626ZM9.96373 20.3312L9.91095 20.2859L9.25822 21.0475L9.31101 21.0927L9.96373 20.3312ZM11.0532 20.3174C10.7199 20.5788 10.2801 20.5788 9.94688 20.3174L9.32786 21.1065C10.0246 21.653 10.9755 21.653 11.6722 21.1065L11.0532 20.3174ZM11.0717 20.2992L11.0278 20.3386L11.6975 21.0852L11.7415 21.0458L11.0717 20.2992ZM14.3064 17.3857C13.3469 18.4768 12.2765 19.4422 11.1168 20.2632L11.6964 21.0818C12.9211 20.2147 14.0495 19.1966 15.0596 18.048L14.3064 17.3857ZM17.436 10.1692C17.393 12.6518 16.2536 15.1355 14.3038 17.3887L15.0622 18.045C17.1167 15.6709 18.3906 12.9697 18.4388 10.1866L17.436 10.1692ZM17.436 10.0796L17.4359 10.1773L18.4389 10.1785L18.439 10.0808L17.436 10.0796ZM10.7305 2.41612C14.4251 2.5492 17.4489 5.89458 17.436 10.0786L18.439 10.0817C18.4534 5.43809 15.0798 1.56915 10.7666 1.41378L10.7305 2.41612ZM10.5153 2.41191L10.7386 2.41635L10.7585 1.41356L10.5352 1.40913L10.5153 2.41191ZM17.1123 9.83362C17.0063 6.01428 14.1405 2.872 10.5227 2.8585L10.5189 3.86148C13.5135 3.87265 16.0164 6.49808 16.1097 9.86144L17.1123 9.83362ZM17.1153 10.1597L17.1125 9.84305L16.1095 9.85201L16.1124 10.1687L17.1153 10.1597ZM14.1051 17.0438C15.9454 14.9171 17.0743 12.534 17.1152 10.1729L16.1124 10.1555C16.0768 12.2091 15.0883 14.3748 13.3466 16.3875L14.1051 17.0438ZM10.9677 19.8717C12.1108 19.0636 13.1638 18.1141 14.1024 17.0468L13.3493 16.3844C12.4614 17.394 11.4666 18.2906 10.3887 19.0527L10.9677 19.8717ZM10.9223 19.9106L10.9964 19.8498L10.36 19.0745L10.286 19.1353L10.9223 19.9106ZM10.051 19.887C10.3042 20.1269 10.6958 20.1269 10.9491 19.887L10.2593 19.1588C10.3929 19.0323 10.6071 19.0323 10.7407 19.1588L10.051 19.887ZM10.005 19.8507L10.0769 19.91L10.7148 19.1359L10.6428 19.0766L10.005 19.8507ZM5.62044 15.3486C6.83583 17.1259 8.32895 18.6576 10.0328 19.872L10.615 19.0553C9.01016 17.9114 7.59933 16.4656 6.44836 14.7825L5.62044 15.3486ZM3.90257 10.4042C4.02214 12.1933 4.61632 13.912 5.62335 15.3528L6.44545 14.7783C5.54641 13.4919 5.01109 11.9499 4.90332 10.3373L3.90257 10.4042ZM3.88535 10.0543L3.90205 10.3953L4.90384 10.3462L4.88713 10.0052L3.88535 10.0543ZM10.2939 2.86187C6.70596 2.98129 3.89669 6.18066 3.88475 10.0282L4.88773 10.0313C4.89825 6.64272 7.35602 3.96319 10.3273 3.8643L10.2939 2.86187ZM10.5134 2.85855L10.3032 2.86165L10.318 3.86453L10.5282 3.86143L10.5134 2.85855ZM8.16811 10.1726C8.16811 8.69218 9.25402 7.5714 10.5 7.5714V6.56842C8.61632 6.56842 7.16512 8.22591 7.16512 10.1726H8.16811ZM10.5 12.7739C9.25402 12.7739 8.16811 11.6531 8.16811 10.1726H7.16512C7.16512 12.1194 8.61632 13.7769 10.5 13.7769V12.7739ZM12.8319 10.1726C12.8319 11.6531 11.746 12.7739 10.5 12.7739V13.7769C12.3837 13.7769 13.8349 12.1194 13.8349 10.1726H12.8319ZM10.5 7.5714C11.746 7.5714 12.8319 8.69218 12.8319 10.1726H13.8349C13.8349 8.22591 12.3837 6.56842 10.5 6.56842V7.5714ZM12.5112 10.1726C12.5112 9.02644 11.6527 8.0179 10.5 8.0179V9.02089C11.015 9.02089 11.5083 9.49271 11.5083 10.1726H12.5112ZM10.5 12.3274C11.6527 12.3274 12.5112 11.3188 12.5112 10.1726H11.5083C11.5083 10.8526 11.015 11.3244 10.5 11.3244V12.3274ZM8.48878 10.1726C8.48878 11.3188 9.34735 12.3274 10.5 12.3274V11.3244C9.98506 11.3244 9.49177 10.8526 9.49177 10.1726H8.48878ZM10.5 8.0179C9.34735 8.0179 8.48878 9.02644 8.48878 10.1726H9.49177C9.49177 9.49271 9.98506 9.02089 10.5 9.02089V8.0179Z" fill="black"/>
</svg>
