<svg width="35" height="37" viewBox="0 0 35 37" fill="none" xmlns="http://www.w3.org/2000/svg">
<circle cx="16.5" cy="19.6579" r="16.5" fill="#0000FF"/>
<ellipse cx="27.5" cy="9.39474" rx="5.5" ry="6.07895" fill="white"/>
<path d="M35 8.84211C35 11.1872 34.1571 13.4362 32.6569 15.0944C31.1566 16.7526 29.1217 17.6842 27 17.6842C24.8783 17.6842 22.8434 16.7526 21.3431 15.0944C19.8429 13.4362 19 11.1872 19 8.84211C19 6.49703 19.8429 4.24801 21.3431 2.58979C22.8434 0.931576 24.8783 0 27 0C29.1217 0 31.1566 0.931576 32.6569 2.58979C34.1571 4.24801 35 6.49703 35 8.84211ZM31.03 5.49316C30.9586 5.41448 30.8735 5.35254 30.7799 5.31103C30.6863 5.26952 30.5861 5.24929 30.4853 5.25156C30.3845 5.25383 30.2851 5.27855 30.1932 5.32424C30.1012 5.36993 30.0185 5.43565 29.95 5.51747L26.477 10.4083L24.384 8.09384C24.2418 7.94742 24.0538 7.8677 23.8595 7.87149C23.6652 7.87528 23.4798 7.96228 23.3424 8.11416C23.205 8.26603 23.1263 8.47093 23.1228 8.68569C23.1194 8.90044 23.1915 9.10828 23.324 9.26542L25.97 12.1911C26.0413 12.2697 26.1262 12.3317 26.2196 12.3733C26.313 12.4149 26.413 12.4352 26.5137 12.4332C26.6144 12.4311 26.7137 12.4066 26.8057 12.3613C26.8977 12.3159 26.9804 12.2505 27.049 12.1689L31.041 6.65368C31.1771 6.49729 31.2523 6.28815 31.2504 6.07116C31.2485 5.85418 31.1698 5.64666 31.031 5.49316H31.03Z" fill="black"/>
</svg>
