<svg width="23" height="23" viewBox="0 0 23 23" fill="none" xmlns="http://www.w3.org/2000/svg">
<path fill-rule="evenodd" clip-rule="evenodd" d="M8.17622 2.81441C10.27 1.59781 12.8437 1.61907 14.9179 2.87011C16.9716 4.14663 18.2199 6.42484 18.2083 8.87555C18.1605 11.3102 16.822 13.5988 15.1489 15.3679C14.1833 16.3936 13.103 17.3006 11.9302 18.0704C11.8094 18.1402 11.6771 18.187 11.5398 18.2083C11.4077 18.2027 11.279 18.1637 11.1654 18.0947C9.37491 16.9381 7.80411 15.4618 6.52857 13.7367C5.46123 12.2967 4.85484 10.557 4.79175 8.75382C4.79036 6.2984 6.0824 4.03101 8.17622 2.81441ZM9.38619 9.76991C9.7384 10.6382 10.5697 11.2046 11.4921 11.2046C12.0963 11.2089 12.6771 10.9669 13.1051 10.5325C13.5332 10.098 13.7728 9.50719 13.7706 8.8917C13.7739 7.9522 13.2208 7.10338 12.3696 6.74157C11.5184 6.37976 10.537 6.57633 9.88371 7.2395C9.23039 7.90266 9.03398 8.90161 9.38619 9.76991Z" fill="black"/>
</svg>
