<svg width="23" height="23" viewBox="0 0 23 23" fill="none" xmlns="http://www.w3.org/2000/svg">
<path d="M10.3972 3.24506H3.11916C2.56766 3.24506 2.03874 3.46415 1.64877 3.85412C1.2588 4.24409 1.03972 4.773 1.03972 5.3245V19.8806C1.03972 20.4321 1.2588 20.961 1.64877 21.351C2.03874 21.7409 2.56766 21.96 3.11916 21.96H17.6752C18.2267 21.96 18.7557 21.7409 19.1456 21.351C19.5356 20.961 19.7547 20.4321 19.7547 19.8806V12.6025" stroke="#E1CFB9" stroke-width="2" stroke-linecap="round" stroke-linejoin="round"/>
<path d="M18.1951 1.68572C18.6087 1.27209 19.1697 1.03972 19.7547 1.03972C20.3396 1.03972 20.9006 1.27209 21.3143 1.68572C21.7279 2.09935 21.9603 2.66034 21.9603 3.2453C21.9603 3.83026 21.7279 4.39125 21.3143 4.80488L11.4369 14.6822L7.27804 15.7219L8.31776 11.5631L18.1951 1.68572Z" stroke="#E1CFB9" stroke-width="2" stroke-linecap="round" stroke-linejoin="round"/>
</svg>
