<svg width="25" height="28" viewBox="0 0 25 28" fill="none" xmlns="http://www.w3.org/2000/svg">
<path fill-rule="evenodd" clip-rule="evenodd" d="M7.66507 23.1237C8.10087 23.1237 8.45509 23.5238 8.45509 24.0162C8.45509 24.5085 8.10087 24.9075 7.66507 24.9075C7.22926 24.9075 6.87608 24.5085 6.87608 24.0162C6.87608 23.5238 7.22926 23.1237 7.66507 23.1237Z" stroke="white" stroke-width="1.5" stroke-linecap="round" stroke-linejoin="round"/>
<path fill-rule="evenodd" clip-rule="evenodd" d="M19.2856 23.1237C19.7214 23.1237 20.0756 23.5238 20.0756 24.0162C20.0756 24.5085 19.7214 24.9075 19.2856 24.9075C18.8498 24.9075 18.4955 24.5085 18.4955 24.0162C18.4955 23.5238 18.8498 23.1237 19.2856 23.1237Z" stroke="white" stroke-width="1.5" stroke-linecap="round" stroke-linejoin="round"/>
<path d="M2.83983 3.79167L4.98786 4.21167L5.98236 17.5968C6.06291 18.6877 6.86945 19.5253 7.83814 19.5253H19.1071C20.0324 19.5253 20.8172 18.7577 20.9504 17.7217L21.9305 10.0707C22.0513 9.12683 21.4038 8.28216 20.5601 8.28216H5.33278" stroke="#E1CFB9" stroke-width="1.5" stroke-linecap="round" stroke-linejoin="round"/>
<path d="M14.5874 12.5942H17.4511" stroke="white" stroke-width="1.5" stroke-linecap="round" stroke-linejoin="round"/>
</svg>
