<svg width="199" height="27" viewBox="0 0 199 27" fill="none" xmlns="http://www.w3.org/2000/svg">
<path d="M22.8578 27L14.134 22.4107L5.41028 27L7.07714 17.2808L0 10.3968L9.76125 8.97923L14.1231 0L18.485 8.97923L28.2463 10.3968L21.1862 17.2808L22.8578 27Z" fill="#FFC529"/>
<path d="M64.7042 27L55.9805 22.4107L47.2567 27L48.9236 17.2808L41.8464 10.3968L51.6077 8.97923L55.9696 0L60.3314 8.97923L70.0927 10.3968L63.0327 17.2808L64.7042 27Z" fill="#FFC529"/>
<path d="M106.511 27L97.7869 22.4107L89.0632 27L90.73 17.2808L83.6529 10.3968L93.4141 8.97923L97.776 0L102.138 8.97923L111.899 10.3968L104.839 17.2808L106.511 27Z" fill="#FFC529"/>
<path d="M148.317 27L139.593 22.4107L130.87 27L132.536 17.2808L125.459 10.3968L135.221 8.97923L139.582 0L143.944 8.97923L153.706 10.3968L146.646 17.2808L148.317 27Z" fill="#FFC529"/>
<path d="M190.079 17.4503L191.407 25.1708L184.478 21.5257L184.013 21.2808L183.547 21.5257L176.617 25.1713L177.941 17.4498L178.03 16.931L177.653 16.564L172.03 11.0948L179.784 9.96885L180.308 9.89271L180.539 9.41618L184.002 2.28861L187.464 9.41618L187.696 9.89271L188.22 9.96885L195.976 11.0953L190.367 16.5648L189.99 16.932L190.079 17.4503Z" stroke="#FFC529" stroke-width="2"/>
</svg>
