<svg width="14" height="14" viewBox="0 0 14 14" fill="none" xmlns="http://www.w3.org/2000/svg">
<path d="M6.06453 0.563855C6.45167 -0.187955 7.52655 -0.187956 7.91369 0.563854L9.35922 3.37098C9.5044 3.6529 9.77027 3.85319 10.0813 3.91493L13.1398 4.5221C13.9291 4.67879 14.2491 5.63408 13.7133 6.23453L11.5093 8.70479C11.31 8.9281 11.2167 9.22642 11.253 9.52348L11.6579 12.8318C11.7587 13.6561 10.9004 14.2603 10.1585 13.8873L7.45622 12.5288C7.16234 12.381 6.81588 12.381 6.522 12.5288L3.81975 13.8873C3.07781 14.2603 2.2195 13.6561 2.32037 12.8318L2.72521 9.52348C2.76156 9.22642 2.66818 8.9281 2.46893 8.70479L0.264895 6.23453C-0.270841 5.63408 0.0490878 4.67879 0.838391 4.5221L3.89692 3.91493C4.20795 3.85319 4.47382 3.6529 4.619 3.37098L6.06453 0.563855Z" fill="#E1CFB9"/>
</svg>
