<svg width="23" height="23" viewBox="0 0 23 23" fill="none" xmlns="http://www.w3.org/2000/svg">
<path opacity="0.4" d="M19.625 13.144C18.7181 12.619 18.4042 11.4867 18.9166 10.5885C19.0848 10.2985 19.3293 10.0573 19.625 9.88997C20.0744 9.63859 20.4026 9.22333 20.5372 8.73586C20.6718 8.2484 20.6016 7.72882 20.3422 7.29183L19.7037 6.17591C19.4456 5.73818 19.0193 5.4185 18.5188 5.28744C18.0183 5.15639 17.4848 5.22473 17.0362 5.47739C16.5862 5.73045 16.0514 5.79902 15.5495 5.66802C15.0476 5.53702 14.6197 5.21718 14.3599 4.77887C14.1898 4.48804 14.0995 4.15948 14.0975 3.8248C14.0998 3.31952 13.8954 2.83415 13.5293 2.47606C13.1633 2.11797 12.6659 1.91666 12.1471 1.91666H10.8615C9.78287 1.91665 8.90716 2.76578 8.90234 3.81629C8.906 4.49761 8.53476 5.12866 7.9294 5.4701C7.32405 5.81154 6.57731 5.81107 5.97241 5.46887C5.51961 5.20593 4.97681 5.13272 4.46768 5.26592C3.95856 5.39912 3.52648 5.72738 3.26989 6.17591L2.65766 7.24924C2.12256 8.16002 2.44295 9.32073 3.37484 9.84737C4.30878 10.3772 4.62578 11.5436 4.08327 12.454C3.91734 12.7435 3.67207 12.9824 3.37484 13.144C2.92542 13.3954 2.5972 13.8107 2.46264 14.2981C2.32808 14.7856 2.39825 15.3052 2.65766 15.7422L3.26989 16.8325C3.81384 17.7422 5.01139 18.0509 5.94618 17.5225C6.88195 17.0063 8.06989 17.3174 8.61372 18.221C8.7868 18.5107 8.87738 18.84 8.8761 19.1751C8.87608 19.6842 9.08489 20.1721 9.45609 20.5304C9.82728 20.8888 10.3301 21.0878 10.8527 21.0833H12.1384C13.2204 21.0833 14.0975 20.229 14.0975 19.1751C14.0905 18.6669 14.2929 18.1771 14.6594 17.8153C15.0259 17.4535 15.526 17.2499 16.0479 17.2499C16.392 17.2479 16.7304 17.3361 17.0274 17.5055C17.9625 18.0267 19.1543 17.7146 19.695 16.807L20.3422 15.7166C20.8647 14.8122 20.5454 13.6668 19.625 13.144Z" fill="black"/>
<path d="M11.4998 13.896C12.823 13.896 13.8957 12.8233 13.8957 11.5002C13.8957 10.177 12.823 9.10432 11.4998 9.10432C10.1767 9.10432 9.104 10.177 9.104 11.5002C9.104 12.8233 10.1767 13.896 11.4998 13.896Z" fill="black"/>
</svg>
