<svg width="20" height="20" viewBox="0 0 20 20" fill="none" xmlns="http://www.w3.org/2000/svg">
<g clip-path="url(#clip0_0_28)">
<path d="M16.0381 0H10H3.96192C2.92192 0 2.0755 0.848302 2.0755 1.89057V16.9774C2.0755 18.0196 2.92192 18.8679 3.96192 18.8679H3.96229V20H4.71701V18.8679H10H15.283V20H16.0378V18.8679H16.0381C17.0781 18.8679 17.9246 18.0196 17.9246 16.9774V1.89057C17.9246 0.848302 17.0781 0 16.0381 0ZM3.96229 18.1132C3.33776 18.1132 2.83022 17.6038 2.83022 16.9774V1.89057C2.83022 1.26415 3.33776 0.754717 3.96192 0.754717H9.62267V18.1132H4.71701H3.96229ZM17.1698 16.9774C17.1698 17.6038 16.6623 18.1132 16.0381 18.1132H16.0378H15.283H10.3774V0.754717H16.0381C16.6623 0.754717 17.1698 1.26415 17.1698 1.89057V16.9774Z" fill="#AAACAE" stroke="#AAACAE"/>
<path d="M8.31396 7.92725H7.18188V10.5688H8.31396V7.92725Z" fill="#AAACAE"/>
<path d="M12.814 7.92456H11.6819V10.5661H12.814V7.92456Z" fill="#AAACAE"/>
</g>
<defs>
<clipPath id="clip0_0_28">
<rect width="20" height="20" fill="white"/>
</clipPath>
</defs>
</svg>
