<svg width="32" height="34" viewBox="0 0 32 34" fill="none" xmlns="http://www.w3.org/2000/svg">
<path d="M2.64453 8.49293C2.64453 7.71376 3.23424 7.08334 3.96014 7.08334H14.5511C14.9001 7.08334 15.2347 7.23185 15.4814 7.4962C15.7281 7.76055 15.8667 8.11908 15.8667 8.49293C15.8667 8.86677 15.7281 9.22531 15.4814 9.48965C15.2347 9.754 14.9001 9.90251 14.5511 9.90251H3.96014C3.61122 9.90251 3.27659 9.754 3.02986 9.48965C2.78314 9.22531 2.64453 8.86677 2.64453 8.49293Z" fill="black"/>
<path d="M2.64453 17C2.64453 16.2208 3.23424 15.5904 3.96014 15.5904H27.7734C28.1223 15.5904 28.4569 15.7389 28.7036 16.0033C28.9504 16.2676 29.089 16.6262 29.089 17C29.089 17.3738 28.9504 17.7324 28.7036 17.9967C28.4569 18.2611 28.1223 18.4096 27.7734 18.4096H3.96014C3.61122 18.4096 3.27659 18.2611 3.02986 17.9967C2.78314 17.7324 2.64453 17.3738 2.64453 17Z" fill="black"/>
<path d="M3.96014 24.0975C3.61122 24.0975 3.27659 24.246 3.02986 24.5104C2.78314 24.7747 2.64453 25.1333 2.64453 25.5071C2.64453 25.881 2.78314 26.2395 3.02986 26.5038C3.27659 26.7682 3.61122 26.9167 3.96014 26.9167H19.84C20.189 26.9167 20.5236 26.7682 20.7703 26.5038C21.017 26.2395 21.1556 25.881 21.1556 25.5071C21.1556 25.1333 21.017 24.7747 20.7703 24.5104C20.5236 24.246 20.189 24.0975 19.84 24.0975H3.96014Z" fill="black"/>
</svg>
