<svg width="18" height="20" viewBox="0 0 18 20" fill="none" xmlns="http://www.w3.org/2000/svg">
<path d="M17.344 10.5298C17.3101 8.05595 16.4907 5.93598 14.8798 4.1799C14.8335 4.12983 14.7904 4.07307 14.7442 4.01965C14.1836 3.36196 13.2441 3.24177 12.5696 3.74589C11.8796 4.26003 11.6424 5.21819 12.0305 6.0161C12.1229 6.20974 12.2615 6.38668 12.4063 6.53691C13.8232 8.0259 14.3777 9.81202 13.8787 11.8986C13.4012 13.8917 12.1876 15.1971 10.3826 15.7914C8.62993 16.3656 6.99432 16.005 5.57124 14.7631C4.35147 13.7014 3.72618 12.2792 3.70462 10.5799C3.68613 9.2378 4.11737 8.05261 4.92131 7.03102C5.02296 6.90082 5.16157 6.804 5.26938 6.68047C5.72218 6.17301 5.84539 5.56874 5.65133 4.90771C5.45112 4.24 5.0014 3.83937 4.36687 3.70583C3.87095 3.60234 3.42431 3.74256 3.02388 4.07641C2.32159 4.65732 1.84415 5.43186 1.42215 6.2498C0.689053 7.67202 0.359466 9.20775 0.411832 10.8336C0.473435 12.8167 1.08025 14.5861 2.22302 16.1352C3.30418 17.5975 4.66565 18.6358 6.31975 19.1599C9.11353 20.048 11.7194 19.5806 14.0604 17.6776C15.582 16.4424 16.58 14.7998 17.0729 12.81C17.2608 12.0655 17.3409 11.3044 17.344 10.5298Z" fill="#E1CFB9" stroke="white" stroke-width="0.8"/>
<path d="M10.5365 5.09468C10.5365 3.86609 10.5396 3.43702 10.5365 2.20843C10.5334 1.50733 10.2316 0.976504 9.67098 0.642648C9.1227 0.31547 8.54977 0.328824 8.01381 0.679373C7.49941 1.01323 7.21295 1.52403 7.21295 2.18172C7.20679 4.65225 7.20679 5.52041 7.21295 7.99094C7.21603 8.90904 7.8598 9.67023 8.69762 9.75704C9.56625 9.85051 10.3425 9.2429 10.515 8.32813C10.5396 8.19793 10.5427 8.06439 10.5427 7.93085C10.5365 6.71895 10.5365 6.30657 10.5365 5.09468Z" fill="#E1CFB9" stroke="white" stroke-width="0.8"/>
</svg>
