<svg width="20" height="19" viewBox="0 0 20 19" fill="none" xmlns="http://www.w3.org/2000/svg">
<path d="M0.753789 0.753666L2.8329 1.09655L3.79548 12.0241C3.87245 12.9166 4.65512 13.6014 5.59471 13.5985H16.499C17.3957 13.6004 18.1563 12.9718 18.2833 12.126L19.2319 5.8798C19.3378 5.18165 18.829 4.53398 18.0974 4.43302C18.0334 4.42444 3.16675 4.41968 3.16675 4.41968" stroke="black" stroke-width="1.5" stroke-linecap="round" stroke-linejoin="round"/>
<path d="M12.1239 7.93978H14.8957" stroke="#130F26" stroke-opacity="0.4" stroke-width="1.5" stroke-linecap="round" stroke-linejoin="round"/>
<path fill-rule="evenodd" clip-rule="evenodd" d="M5.15617 16.9003C5.45704 16.9003 5.69994 17.1327 5.69994 17.4185C5.69994 17.7052 5.45704 17.9376 5.15617 17.9376C4.8553 17.9376 4.6124 17.7052 4.6124 17.4185C4.6124 17.1327 4.8553 16.9003 5.15617 16.9003Z" fill="black" stroke="black" stroke-width="1.5" stroke-linecap="round" stroke-linejoin="round"/>
<path fill-rule="evenodd" clip-rule="evenodd" d="M16.4317 16.9003C16.7326 16.9003 16.9765 17.1327 16.9765 17.4185C16.9765 17.7052 16.7326 17.9376 16.4317 17.9376C16.1309 17.9376 15.888 17.7052 15.888 17.4185C15.888 17.1327 16.1309 16.9003 16.4317 16.9003Z" fill="white" fill-opacity="0.4" stroke="white" stroke-opacity="0.4" stroke-width="1.5" stroke-linecap="round" stroke-linejoin="round"/>
</svg>
