<svg width="23" height="23" viewBox="0 0 23 23" fill="none" xmlns="http://www.w3.org/2000/svg">
<path opacity="0.4" d="M21.083 7.71725V15.2827C21.0875 16.5639 20.5819 17.7943 19.6774 18.7027C18.773 19.611 17.5441 20.1227 16.2616 20.125H6.76369C5.47898 20.1272 4.24612 19.619 3.3369 18.7122C2.42768 17.8055 1.91675 16.5747 1.91675 15.2912V7.71725C1.91745 7.15363 2.0184 6.59462 2.21489 6.06629C2.90725 4.15175 4.72605 2.87574 6.76369 2.875H16.2361C18.2986 2.87385 20.135 4.17898 20.8104 6.12586C20.9978 6.63524 21.0902 7.17461 21.083 7.71725Z" fill="black"/>
<path d="M20.8106 6.13437L20.7169 6.21096C18.9536 7.58109 13.2463 12.168 13.2463 12.168C12.2539 12.9743 10.8314 12.9743 9.83901 12.168C9.83901 12.168 4.16579 7.5896 2.40249 6.21947L2.21509 6.0748C2.90461 4.1569 4.72406 2.87703 6.76388 2.875H16.2363C18.301 2.8751 20.1381 4.18413 20.8106 6.13437Z" fill="black"/>
</svg>
