<svg width="14" height="14" viewBox="0 0 14 14" fill="none" xmlns="http://www.w3.org/2000/svg">
<path d="M6.06453 0.563856C6.45168 -0.187955 7.52656 -0.187957 7.9137 0.563854L9.35923 3.37098C9.50441 3.65291 9.77028 3.85319 10.0813 3.91494L13.1398 4.5221C13.9292 4.67879 14.2491 5.63409 13.7133 6.23454L11.5093 8.7048C11.3101 8.92811 11.2167 9.22643 11.253 9.52349L11.6579 12.8318C11.7587 13.6561 10.9004 14.2603 10.1585 13.8873L7.45623 12.5288C7.16235 12.3811 6.81589 12.3811 6.52201 12.5288L3.81975 13.8873C3.07781 14.2603 2.2195 13.6561 2.32037 12.8318L2.72521 9.52349C2.76156 9.22643 2.66818 8.92811 2.46894 8.7048L0.264895 6.23454C-0.270842 5.63409 0.0490879 4.67879 0.838392 4.5221L3.89692 3.91494C4.20796 3.85319 4.47383 3.65291 4.61901 3.37098L6.06453 0.563856Z" fill="#E1CFB9"/>
</svg>
