<svg width="17" height="17" viewBox="0 0 17 17" fill="none" xmlns="http://www.w3.org/2000/svg">
<path d="M3.89995 5.06246L3.88623 5.04968L3.87159 5.03796C3.45025 4.70073 2.84711 4.74284 2.47329 5.14609C2.07989 5.57046 2.07989 6.24393 2.47329 6.66831L7.28042 11.8539L7.29293 11.8674L7.3064 11.88L7.36823 11.9375L7.38196 11.9503L7.3966 11.962C7.81793 12.2993 8.42108 12.2572 8.7949 11.8539L13.602 6.66831L13.6144 6.65496L13.6258 6.64074L13.6792 6.57405L13.6905 6.55988L13.7008 6.54493C13.9898 6.12477 13.9619 5.53424 13.602 5.14609L13.5895 5.13259L13.576 5.12004L13.5142 5.06247L13.5005 5.04968L13.4858 5.03796C13.0645 4.70073 12.4614 4.74284 12.0876 5.14608L12.0875 5.14609L8.03766 9.51502L3.98777 5.14609L3.97526 5.13259L3.96178 5.12004L3.89995 5.06246Z" fill="black" stroke="black"/>
</svg>
