<svg width="16" height="16" viewBox="0 0 16 16" fill="none" xmlns="http://www.w3.org/2000/svg">
<path d="M3.8699 4.66954L3.85595 4.6574L3.84114 4.64633C3.42933 4.33849 2.84514 4.37263 2.47246 4.7481C2.06468 5.15894 2.06468 5.82351 2.47246 6.23435L7.2571 11.0548L7.27001 11.0678L7.28384 11.0799L7.34538 11.1334L7.35933 11.1455L7.37414 11.1566C7.78595 11.4644 8.37014 11.4303 8.74282 11.0548L13.5275 6.23435L13.5404 6.22135L13.5523 6.20745L13.6054 6.14545L13.6174 6.13146L13.6283 6.11662C13.9315 5.70499 13.8987 5.12212 13.5275 4.7481L13.5145 4.73509L13.5007 4.72306L13.4392 4.66954L13.4252 4.6574L13.4104 4.64633C12.9986 4.33849 12.4144 4.37263 12.0417 4.7481L12.0417 4.74811L7.99996 8.82033L3.95819 4.74811L3.94527 4.73509L3.93144 4.72306L3.8699 4.66954Z" fill="black" stroke="black"/>
</svg>
