<svg width="27" height="28" viewBox="0 0 27 28" fill="none" xmlns="http://www.w3.org/2000/svg">
<path fill-rule="evenodd" clip-rule="evenodd" d="M8.18835 23.1237C8.6539 23.1237 9.0323 23.5238 9.0323 24.0162C9.0323 24.5085 8.6539 24.9075 8.18835 24.9075C7.72279 24.9075 7.3455 24.5085 7.3455 24.0162C7.3455 23.5238 7.72279 23.1237 8.18835 23.1237Z" stroke="white" stroke-width="1.5" stroke-linecap="round" stroke-linejoin="round"/>
<path fill-rule="evenodd" clip-rule="evenodd" d="M20.602 23.1237C21.0675 23.1237 21.4459 23.5238 21.4459 24.0162C21.4459 24.5085 21.0675 24.9075 20.602 24.9075C20.1364 24.9075 19.758 24.5085 19.758 24.0162C19.758 23.5238 20.1364 23.1237 20.602 23.1237Z" stroke="white" stroke-width="1.5" stroke-linecap="round" stroke-linejoin="round"/>
<path d="M3.03376 3.79164L5.32843 4.21164L6.39081 17.5968C6.47686 18.6876 7.33847 19.5253 8.37327 19.5253H20.4114C21.3999 19.5253 22.2384 18.7576 22.3807 17.7216L23.4276 10.0706C23.5567 9.12681 22.865 8.28214 21.9637 8.28214H5.6969" stroke="#E1CFB9" stroke-width="1.5" stroke-linecap="round" stroke-linejoin="round"/>
<path d="M15.5831 12.5942H18.6423" stroke="white" stroke-width="1.5" stroke-linecap="round" stroke-linejoin="round"/>
</svg>
