<svg width="18" height="18" viewBox="0 0 18 18" fill="none" xmlns="http://www.w3.org/2000/svg">
<path d="M8.02839 0.571964C8.42062 -0.19066 9.51087 -0.190658 9.90309 0.571966L11.9841 4.61818C12.1312 4.90408 12.4006 5.10724 12.716 5.16992L17.0819 6.03771C17.8815 6.19663 18.2057 7.16418 17.6634 7.7728L14.5433 11.2741C14.3417 11.5003 14.2472 11.8024 14.284 12.1032L14.86 16.8161C14.9621 17.6517 14.0918 18.264 13.3398 17.8855L9.43965 15.9224C9.14153 15.7723 8.78996 15.7723 8.49184 15.9224L4.59167 17.8855C3.83971 18.264 2.96936 17.6517 3.07149 16.8161L3.6475 12.1032C3.68426 11.8024 3.58978 11.5003 3.38816 11.2741L0.268102 7.7728C-0.274252 7.16418 0.049988 6.19663 0.849554 6.03771L5.21551 5.16992C5.53085 5.10724 5.80033 4.90408 5.94738 4.61817L8.02839 0.571964Z" fill="#E1CFB9"/>
</svg>
