<svg width="17" height="18" viewBox="0 0 17 18" fill="none" xmlns="http://www.w3.org/2000/svg">
<path d="M7.60026 0.551671C7.97458 -0.183874 9.02539 -0.183875 9.39971 0.551669L11.3593 4.40227C11.4993 4.67741 11.7575 4.87336 12.0602 4.93416L16.1885 5.76344C16.9507 5.91656 17.2611 6.83769 16.7468 7.42086L13.7845 10.7805C13.594 10.9965 13.5049 11.2835 13.5395 11.5694L14.0849 16.08C14.1819 16.8818 13.3448 17.4672 12.625 17.101L8.95771 15.2355C8.6701 15.0892 8.32987 15.0892 8.04226 15.2355L4.37499 17.101C3.65513 17.4672 2.81807 16.8818 2.91504 16.08L3.46052 11.5694C3.49509 11.2835 3.40594 10.9965 3.2155 10.7805L0.253123 7.42086C-0.261082 6.83769 0.0492481 5.91656 0.811513 5.76344L4.93979 4.93416C5.24246 4.87336 5.50068 4.67741 5.6407 4.40228L7.60026 0.551671Z" fill="#E1CFB9"/>
</svg>
