<svg width="16" height="16" viewBox="0 0 16 16" fill="none" xmlns="http://www.w3.org/2000/svg">
<path d="M14.3644 5.29279C14.1769 5.10532 13.9226 5 13.6574 5C13.3923 5 13.138 5.10532 12.9504 5.29279L8.00044 10.2428L3.05043 5.29279C2.86183 5.11063 2.60923 5.00983 2.34703 5.01211C2.08483 5.01439 1.83403 5.11956 1.64863 5.30497C1.46323 5.49038 1.35803 5.74119 1.35573 6.00338C1.35353 6.26558 1.45433 6.51818 1.63643 6.70679L7.29344 12.3638C7.48097 12.5513 7.73528 12.6566 8.00044 12.6566C8.26561 12.6566 8.51992 12.5513 8.70744 12.3638L14.3644 6.70679C14.5519 6.51926 14.6572 6.26495 14.6572 5.99979C14.6572 5.73462 14.5519 5.48031 14.3644 5.29279Z" fill="black"/>
</svg>
