<svg width="16" height="16" viewBox="0 0 16 16" fill="none" xmlns="http://www.w3.org/2000/svg">
<g clip-path="url(#clip0_1_858)">
<path d="M10 12.6666V13.3333C10 13.8637 9.78931 14.3724 9.41423 14.7475C9.03916 15.1226 8.53045 15.3333 8.00002 15.3333C7.46959 15.3333 6.96088 15.1226 6.58581 14.7475C6.21073 14.3724 6.00002 13.8637 6.00002 13.3333V12.6666M2.66669 12.6666V5.99996C2.66669 4.58547 3.22859 3.22892 4.22878 2.22872C5.22898 1.22853 6.58553 0.666626 8.00002 0.666626C9.41451 0.666626 10.7711 1.22853 11.7713 2.22872C12.7715 3.22892 13.3334 4.58547 13.3334 5.99996V12.6666H2.66669ZM0.666687 12.6666H15.3334H0.666687Z" stroke="white" stroke-width="1.5"/>
</g>
<defs>
<clipPath id="clip0_1_858">
<rect width="16" height="16" fill="white"/>
</clipPath>
</defs>
</svg>
