<svg width="17" height="21" viewBox="0 0 17 21" fill="none" xmlns="http://www.w3.org/2000/svg">
<path d="M4.12579 6.14945L4.11277 6.13573L4.09874 6.12304C3.65127 5.71795 2.99915 5.77985 2.61739 6.24563C2.23866 6.70771 2.23866 7.42337 2.61739 7.88545L7.70107 14.0879L7.71262 14.102L7.72517 14.1152L7.79056 14.1841L7.80358 14.1978L7.8176 14.2105C8.26508 14.6156 8.91719 14.5537 9.29895 14.0879L14.3826 7.88545L14.3939 7.87175L14.4041 7.8573L14.4605 7.77752L14.4706 7.76335L14.4796 7.74852C14.7536 7.29801 14.7309 6.67058 14.3826 6.24563L14.3711 6.23153L14.3585 6.21832L14.2931 6.14945L14.2801 6.13573L14.2661 6.12304C13.8186 5.71795 13.1665 5.77985 12.7847 6.24563L12.7847 6.24564L8.50001 11.4735L4.21528 6.24564L4.20373 6.23154L4.19117 6.21832L4.12579 6.14945Z" fill="black" stroke="black"/>
</svg>
