<svg width="17" height="18" viewBox="0 0 17 18" fill="none" xmlns="http://www.w3.org/2000/svg">
<path d="M7.60033 0.551667C7.97464 -0.183872 9.02545 -0.183874 9.39976 0.551665L11.3593 4.40224C11.4993 4.67738 11.7575 4.87333 12.0602 4.93413L16.1885 5.7634C16.9507 5.91652 17.2611 6.83764 16.7468 7.4208L13.7845 10.7805C13.5941 10.9964 13.5049 11.2835 13.5395 11.5693L14.085 16.0799C14.1819 16.8817 13.3449 17.4671 12.625 17.1009L8.95777 15.2354C8.67016 15.0891 8.32994 15.0891 8.04233 15.2354L4.37508 17.1009C3.65523 17.4671 2.81818 16.8817 2.91514 16.0799L3.46062 11.5693C3.49519 11.2835 3.40604 10.9964 3.2156 10.7805L0.253244 7.4208C-0.260957 6.83764 0.049371 5.91652 0.81163 5.7634L4.93988 4.93413C5.24255 4.87333 5.50076 4.67738 5.64078 4.40224L7.60033 0.551667Z" fill="#E1CFB9"/>
</svg>
