<svg width="16" height="15" viewBox="0 0 16 15" fill="none" xmlns="http://www.w3.org/2000/svg">
<path d="M5.29293 1.49478C5.10546 1.66612 5.00014 1.89848 5.00014 2.14076C5.00014 2.38304 5.10546 2.6154 5.29293 2.78674L10.2429 7.3095L5.29293 11.8323C5.11077 12.0046 5.00998 12.2354 5.01225 12.475C5.01453 12.7145 5.1197 12.9437 5.30511 13.1131C5.49052 13.2825 5.74133 13.3786 6.00353 13.3807C6.26573 13.3827 6.51833 13.2906 6.70694 13.1242L12.364 7.95548C12.5514 7.78414 12.6567 7.55177 12.6567 7.3095C12.6567 7.06722 12.5514 6.83486 12.364 6.66352L6.70694 1.49478C6.51941 1.32349 6.2651 1.22727 5.99993 1.22727C5.73477 1.22727 5.48046 1.32349 5.29293 1.49478Z" fill="white"/>
</svg>
