<svg width="18" height="15" viewBox="0 0 18 15" fill="none" xmlns="http://www.w3.org/2000/svg">
<path d="M4.27433 4.36975L4.25949 4.3588L4.24392 4.34893C3.81832 4.0791 3.22488 4.1019 2.82474 4.44381C2.34067 4.85743 2.34067 5.56723 2.82474 5.98085L8.17964 10.5564L8.19386 10.5686L8.20891 10.5797L8.27779 10.6305L8.29263 10.6414L8.3082 10.6513C8.7338 10.9211 9.32724 10.8983 9.72738 10.5564L15.0823 5.98085L15.0968 5.96842L15.1104 5.95495L15.1699 5.8961L15.1839 5.88222L15.1969 5.86731C15.57 5.43756 15.5159 4.81433 15.0823 4.44381L15.0681 4.43166L15.053 4.42055L14.9841 4.36975L14.9693 4.3588L14.9537 4.34893C14.5281 4.0791 13.9347 4.1019 13.5345 4.44381L13.5345 4.44382L8.95351 8.35828L4.37249 4.44382L4.35826 4.43166L4.3432 4.42055L4.27433 4.36975Z" fill="black" stroke="black"/>
</svg>
