<svg width="17" height="19" viewBox="0 0 17 19" fill="none" xmlns="http://www.w3.org/2000/svg">
<path d="M4.11494 5.56098L4.10119 5.54776L4.08649 5.53561C3.64632 5.17192 3.01354 5.21972 2.6266 5.65061C2.22574 6.097 2.22574 6.80045 2.6266 7.24684L7.71028 12.9079L7.72273 12.9218L7.73616 12.9347L7.80154 12.9976L7.81529 13.0108L7.83 13.0229C8.27017 13.3866 8.90295 13.3388 9.28989 12.9079L14.3736 7.24684L14.3858 7.23319L14.3971 7.2187L14.4535 7.14588L14.4647 7.1315L14.4747 7.11636C14.7679 6.67634 14.7408 6.05956 14.3736 5.65061L14.3611 5.63675L14.3477 5.62384L14.2823 5.56098L14.2685 5.54776L14.2538 5.53561C13.8137 5.17192 13.1809 5.21972 12.794 5.65061L12.7939 5.65062L8.50008 10.4324L4.20622 5.65062L4.19377 5.63675L4.18033 5.62384L4.11494 5.56098Z" fill="black" stroke="black"/>
</svg>
